<?xml version="1.0" encoding="UTF-8" standalone="no"?>
<svg width="181px" height="231px" viewBox="0 0 181 231" version="1.1" xmlns="http://www.w3.org/2000/svg" xmlns:xlink="http://www.w3.org/1999/xlink" xmlns:sketch="http://www.bohemiancoding.com/sketch/ns">
    <!-- Generator: Sketch 3.5.2 (25235) - http://www.bohemiancoding.com/sketch -->
    <title>K12</title>
    <desc>Created with Sketch.</desc>
    <defs>
        <path id="path-1" d="M90.9224319,71.7799697 C90.9224319,71.7799697 91.1126983,71.7437895 90.9224319,69.8854325 C90.4067086,70.0576631 88.8595388,70.0576631 88,67.9908953 C87.312369,66.2685888 87.3600289,66.1907554 87.6561845,63.685129 C87.7721027,62.7044019 88.8595388,63.5128983 88.8595388,61.9628225 C89.0314465,59.723824 87.7144716,57.2928529 88.1719078,55.0735964 C88.7496604,52.270623 90.2348008,50.2511381 91.4381551,49.2177542 C92.6415094,48.3566009 97.7987421,45.7731411 103.127883,46.9787557 C108.457023,48.1843703 110.004193,52.6623672 110.863732,55.5902883 C111.379455,57.4848255 111.207547,62.9962064 109.660377,64.8907436 C108.800839,67.3019727 108.972746,68.5075873 108.972746,69.7132018 C108.457023,74.8801214 105.534591,78.4969651 101.924528,79.1858877 C98.3144654,79.530349 96.7672956,78.6691958 94.7044025,76.9468892"></path>
    </defs>
    <g id="Page-2" stroke="none" stroke-width="1" fill="none" fill-rule="evenodd" sketch:type="MSPage">
        <g id="Desktop-HD-Copy-2" sketch:type="MSArtboardGroup" transform="translate(-164.000000, -1054.000000)">
            <g id="K12" sketch:type="MSLayerGroup" transform="translate(164.000000, 1054.000000)">
                <g id="noun_143936" fill="#00CCAB" sketch:type="MSShapeGroup">
                    <g id="Group">
                        <path d="M159.118516,101.438189 C169.660394,89.9341761 176.86277,78.5477394 179.405172,68.5560778 C181.159232,61.669808 180.664328,55.6665115 177.93798,50.7144836 C173.310854,42.306641 162.817152,37.8641094 147.595591,37.8641094 C140.450151,37.8641094 132.603963,38.8554372 124.374554,40.7159058 C116.815234,15.8543278 104.635358,2.51307747e-13 90.6422956,2.51307747e-13 C76.6492335,2.51307747e-13 64.4671671,15.8543278 56.9122275,40.7159058 C48.6828179,38.8554372 40.8366299,37.8641094 33.6911899,37.8641094 C18.469629,37.8641094 7.97592732,42.306641 3.34880053,50.7144836 C0.62245276,55.6665115 0.129739306,61.6675026 1.88160936,68.5560778 C4.42401078,78.5477394 11.6241967,89.9341761 22.1660748,101.438189 C11.6241967,112.942202 4.42182094,124.330944 1.87941953,134.3203 C0.127549469,141.20657 0.620262922,147.212172 3.3466107,152.1642 C7.97373748,160.569737 18.4674391,165.012268 33.6890001,165.012268 L33.6933797,165.012268 C40.8366299,165.012268 48.6828179,164.020941 56.9100377,162.162777 C64.469357,187.02205 76.6492335,202.876378 90.6422956,202.876378 C104.635358,202.876378 116.815234,187.02205 124.370174,162.160472 C132.601773,164.020941 140.450151,165.012268 147.593401,165.012268 C162.812772,165.012268 173.306474,160.567431 177.933601,152.161894 C180.659949,147.212172 181.154852,141.20657 179.400792,134.3203 C176.86058,124.330944 169.660394,112.942202 159.118516,101.438189 L159.118516,101.438189 Z M147.593401,42.4749362 C160.968929,42.4749362 170.40056,46.2212329 174.147372,53.0268132 C176.269324,56.879159 176.613129,61.7020838 175.174405,67.3618736 C172.844418,76.5166702 166.016505,87.2230099 156.017706,98.1322261 C148.96205,90.8655631 140.618769,83.6035109 131.265972,76.6642166 C130.122877,65.2201446 128.2002,54.5991051 125.63371,45.128467 C133.422962,43.3901853 140.837752,42.4749362 147.593401,42.4749362 L147.593401,42.4749362 Z M109.378546,135.438425 C103.231672,139.159363 96.946838,142.509128 90.6444854,145.476195 C84.3421329,142.509128 78.0551092,139.159363 71.910425,135.438425 C65.7372729,131.70135 59.8225216,127.747566 54.236246,123.664679 C53.5552065,116.499454 53.185124,109.059885 53.185124,101.440494 C53.185124,93.8187976 53.5573963,86.3769232 54.236246,79.209393 C59.8225216,75.1242005 65.7372729,71.1704165 71.910425,67.4333414 C78.0551092,63.7147097 84.3421329,60.364944 90.6422956,57.397877 C96.9446481,60.3626386 103.229482,63.7124042 109.376356,67.4333414 C115.549508,71.1704165 121.464259,75.1242005 127.048345,79.209393 C127.729385,86.3769232 128.099467,93.8187976 128.099467,101.440494 C128.099467,109.062191 127.727195,116.499454 127.048345,123.666985 C121.46207,127.749872 115.549508,131.70135 109.378546,135.438425 L109.378546,135.438425 Z M126.400153,129.711779 C125.213261,139.403736 123.428544,148.482454 121.175201,156.673588 C113.044334,154.575662 104.571852,151.627038 96.0643334,147.933766 C101.282716,145.354008 106.470442,142.516044 111.557434,139.436012 C116.716692,136.314482 121.659155,133.052323 126.400153,129.711779 L126.400153,129.711779 Z M85.2202578,147.933766 C76.710549,151.629344 68.2402573,154.577967 60.1072005,156.675893 C57.8560475,148.480149 56.0713299,139.403736 54.8822481,129.709473 C59.6254363,133.052323 64.5678996,136.314482 69.727157,139.438318 C74.8141496,142.516044 80.0040647,145.354008 85.2202578,147.933766 L85.2202578,147.933766 Z M49.4930578,120.102816 C41.6140222,114.028051 34.4948603,107.722746 28.3874033,101.438189 C34.4970501,95.1513265 41.6162121,88.8460209 49.4952477,82.7712567 C49.0485208,88.8114397 48.8054488,95.0429721 48.8054488,101.440494 C48.803259,107.835711 49.046331,114.064938 49.4930578,120.102816 L49.4930578,120.102816 Z M54.8822481,73.1645991 C56.0713299,63.4726413 57.8538577,54.3962288 60.1072005,46.2027896 C68.2402573,48.3007158 76.710549,51.2493395 85.2202578,54.9403063 C80.0018748,57.5200639 74.8163395,60.3557224 69.727157,63.4357546 C64.5678996,66.5595898 59.6254363,69.8217497 54.8822481,73.1645991 L54.8822481,73.1645991 Z M96.0665233,54.9403063 C104.576232,51.2493395 113.046524,48.3007158 121.177391,46.2027896 C123.428544,54.3962288 125.213261,63.4703358 126.402343,73.1622937 C121.661345,69.8194443 116.718881,66.5572844 111.561814,63.4334492 C106.472631,60.3557224 101.282716,57.5200639 96.0665233,54.9403063 L96.0665233,54.9403063 Z M131.789344,82.7712567 C139.668379,88.8460209 146.789731,95.153632 152.899378,101.438189 C146.789731,107.725051 139.668379,114.030357 131.789344,120.105121 C132.23607,114.067243 132.479142,107.838016 132.479142,101.440494 C132.479142,95.0429721 132.23607,88.8114397 131.789344,82.7712567 L131.789344,82.7712567 Z M90.6422956,4.61082677 C102.329459,4.61082677 112.9655,19.3193641 119.894146,41.79945 C110.418719,44.2616315 100.518463,47.8350223 90.6422956,52.3605487 C80.7661282,47.8350223 70.8658725,44.2593261 61.3882555,41.7971446 C68.3190914,19.3193641 78.9551325,4.61082677 90.6422956,4.61082677 L90.6422956,4.61082677 Z M7.13721953,53.0268132 C10.8840316,46.2212329 20.3134722,42.4749362 33.6911899,42.4749362 C40.444649,42.4749362 47.859439,43.3901853 55.6508811,45.1261616 C53.0865813,54.5967997 51.161714,65.2201446 50.0186188,76.6642166 C40.6658226,83.6035109 32.3225414,90.8655631 25.2690746,98.1322261 C15.2680864,87.2230099 8.44017289,76.5166702 6.11018571,67.3618736 C4.67146243,61.7043892 5.01526693,56.879159 7.13721953,53.0268132 L7.13721953,53.0268132 Z M33.6955696,160.401442 L33.6911899,160.401442 C20.3134722,160.401442 10.8840316,156.652839 7.13940937,149.85187 C5.01745676,145.997219 4.67365226,141.171988 6.11456539,135.512199 C8.44455256,126.357402 15.2702763,115.653368 25.2712645,104.741846 C32.3247313,112.006204 40.6702022,119.268256 50.0208087,126.20755 C51.1639039,137.653928 53.0865813,148.277273 55.6530709,157.750216 C47.8616288,159.486192 40.4490286,160.401442 33.6955696,160.401442 L33.6955696,160.401442 Z M90.6422956,198.265551 C78.9551325,198.265551 68.3190914,183.557014 61.3882555,161.079233 C70.8658725,158.617052 80.7661282,155.03905 90.6422956,150.513524 C100.516273,155.03905 110.416529,158.614746 119.894146,161.076928 C112.9655,183.557014 102.331649,198.265551 90.6422956,198.265551 L90.6422956,198.265551 Z M174.147372,149.849564 C170.40056,156.655145 160.971119,160.401442 147.595591,160.401442 C140.839942,160.401442 133.425152,159.486192 125.63371,157.750216 C128.2002,148.277273 130.122877,137.653928 131.265972,126.209856 C140.618769,119.268256 148.96205,112.010815 156.015517,104.744152 C166.016505,115.651062 172.844418,126.359708 175.174405,135.512199 C176.613129,141.171988 176.269324,145.997219 174.147372,149.849564 L174.147372,149.849564 Z" id="Shape"></path>
                        <path d="M90.6422956,116.534036 C82.7063242,116.534036 76.2528729,109.760731 76.2528729,101.435883 C76.2528729,93.1133411 82.7085141,86.342342 90.6422956,86.342342 C98.5760771,86.342342 105.029528,93.1133411 105.029528,101.435883 C105.029528,109.760731 98.5760771,116.534036 90.6422956,116.534036 L90.6422956,116.534036 Z M90.6422956,90.9531688 C85.1217151,90.9531688 80.6325481,95.6562121 80.6325481,101.435883 C80.6325481,107.21786 85.1239049,111.923209 90.6422956,111.923209 C96.1606863,111.923209 100.649853,107.21786 100.649853,101.435883 C100.649853,95.6562121 96.1628761,90.9531688 90.6422956,90.9531688 L90.6422956,90.9531688 Z" id="Shape"></path>
                    </g>
                </g>
                <path d="M72.3563941,216.109256 C75.6226415,217.487102 82.8427673,214.214719 83.7023061,214.38695 C84.5618449,214.559181 85.4213836,205.775417 84.5618449,201.12519 C83.7023061,196.474962 88.8595388,184.935508 89.0314465,181.318665 C89.2033543,177.701821 92.4696017,165.473445 94.1886792,163.751138 C95.9077568,162.028832 94.360587,179.079666 95.048218,179.251897 C95.7358491,179.424127 98.3144654,200.952959 98.3144654,201.641882 C98.3144654,202.330804 99.3459119,211.286798 100.377358,212.836874 C101.408805,214.38695 103.643606,217.659332 106.222222,215.937026 C108.800839,214.214719 113.098532,213.698027 113.27044,211.975721 C113.442348,210.253414 113.786164,203.708649 113.27044,201.814112 C112.754717,199.919575 109.144654,194.408194 110.691824,190.274659 C112.238994,186.141123 110.348008,186.830046 110.348008,183.557663 C110.348008,180.285281 110.348008,169.090288 111.207547,166.85129 C112.067086,164.612291 113.786164,144.805766 112.238994,143.427921 C110.691824,142.050076 106.737945,144.633536 103.29979,143.600152 C99.8616352,142.566768 92.4696017,142.911229 90.4067086,141.361153 C88.3438155,139.811077 85.0775681,140.672231 83.1865828,139.638847 C81.2955975,138.605463 76.1383648,136.022003 75.278826,138.088771 C74.4192872,140.155539 76.4821803,150.661608 75.6226415,152.383915 C74.7631027,154.106222 75.6226415,162.028832 76.3102725,162.201062 C76.9979036,162.373293 76.9979036,172.362671 74.7631027,175.635053 C72.5283019,178.907436 72.1844864,185.107739 72.1844864,186.141123 C72.1844864,187.174507 71.1530398,198.886191 71.8406709,200.952959 C72.5283019,203.019727 69.2620545,208.358877 70.4654088,209.564492 C71.6687631,210.770106 69.0901468,214.731411 72.3563941,216.109256 Z" id="Path-43" fill="#FFFDFD" sketch:type="MSShapeGroup"></path>
                <path d="M89.5196343,59.4608289 C89.5196343,59.4608289 95.3611084,62.5609807 101.635284,61.3553661 C107.90946,60.1497515 111.969912,59.0992889 108.774864,58.5996757 C107.156524,58.3466141 109.455779,54.6775484 109,51.5 C108.804102,50.1342611 107.088996,48.9006634 106,48 C105.241458,47.3726414 103.551232,46.8014595 102,47 C100.73013,47.1625292 99.7188667,48.0641409 98,48 C84.1535428,47.483308 89.5196343,59.4608289 89.5196343,59.4608289 Z" id="Path-42" fill="#FFFFFF" sketch:type="MSShapeGroup"></path>
                <path d="M63.7610063,99.6598065 C63.7610063,99.6598065 69.0901468,107.065725 71.4968553,107.065725 C73.9035639,107.065725 75.6226415,103.793342 76.8259958,104.137803 C78.0293501,104.482265 79.7484277,113.610489 80.4360587,113.954951 C81.1236897,114.299412 81.639413,120.671946 81.639413,120.671946 C81.639413,120.671946 81.1236897,129.111248 80.2641509,129.62794 C79.4046122,130.144632 74.7631027,135.311552 75.1069182,137.206089 C75.4507338,139.100626 73.5597484,138.411703 79.4046122,140.13401 C85.2494759,141.856316 100.549266,146.162083 104.84696,144.956468 C109.144654,143.750854 112.582809,143.406392 112.926625,142.200778 C113.27044,140.995163 110.519916,130.489093 110.348008,127.733403 C110.176101,124.977712 108.285115,119.810793 109.316562,118.777409 C110.348008,117.744025 109.144654,108.44357 109.48847,107.754647 C109.832285,107.065725 114.81761,107.926878 114.645702,107.065725 C114.473795,106.204571 112.410901,92.9428111 112.410901,88.8092754 C112.410901,84.6757398 107.9413,84.6757398 107.425577,84.5035091 C106.909853,84.3312785 105.362683,84.5035091 103.471698,81.0588961 C101.580713,77.614283 102.096436,91.2205046 101.236897,92.2538885 C100.377358,93.2872724 100.721174,87.6036608 98.8301887,86.7425076 C96.9392034,85.8813543 91.0943396,79.8532815 90.5786164,76.4086684 C90.0628931,72.9640554 89.5471698,78.130975 89.5471698,78.130975 C89.5471698,78.130975 86.4528302,78.9921282 86.6247379,79.8532815 C86.7966457,80.7144347 84.3899371,83.6423558 80.951782,84.3312785 C77.5136268,85.0202011 63.7610063,99.6598065 63.7610063,99.6598065 Z" id="Path-19" fill="#FFFFFF" sketch:type="MSShapeGroup"></path>
                <path d="M74.4192872,140.327769 C72.5283019,141.016692 65.9958071,139.294385 64.9643606,136.710926 C63.932914,134.127466 63.5890985,126.377086 62.9014675,124.138088 C62.2138365,121.89909 58.9475891,119.48786 60.8385744,115.182094 C62.7295597,110.876328 63.932914,100.025797 63.5890985,99.1646434 C63.245283,98.3034901 64.4486373,87.2807284 70.1215933,85.3861912 C75.7945493,83.491654 82.4989518,80.047041 78.5450734,84.008346 C74.591195,87.969651 64.7924528,96.0644917 65.1362683,97.7867982 C65.4800839,99.5091047 68.7463312,105.537178 71.4968553,105.537178 C74.2473795,105.537178 76.4821803,101.748103 77.3417191,102.264795 C78.2012579,102.781487 80.6079665,113.287557 81.2955975,113.459788 C81.9832285,113.632018 82.327044,116.904401 81.9832285,117.765554 C81.639413,118.626707 81.1236897,127.754932 80.2641509,128.271624 C79.4046122,128.788316 76.9979036,131.371775 75.966457,133.094082 C74.9350105,134.816388 76.3102725,139.638847 74.4192872,140.327769 Z" id="Path-23" fill="#EFEFEF" sketch:type="MSShapeGroup"></path>
                <path d="M87.6561845,118.282246 C87.6561845,118.282246 88.3438155,117.765554 90.2348008,119.31563 C92.1257862,120.865706 93.3291405,119.48786 92.6415094,123.793627 C91.9538784,128.099393 90.2348008,129.477238 89.0314465,128.960546 C87.8280922,128.443854 88,127.582701 85.4213836,127.066009 C82.8427673,126.549317 79.4046122,125.860395 78.3731656,124.827011 C77.3417191,123.793627 64.4486373,117.593323 63.0733753,114.665402 C61.6981132,111.737481 56.0251572,110.015175 58.7756813,106.2261 C61.5262055,102.437026 63.0733753,98.9924127 64.1048218,98.4757208 C65.1362683,97.9590288 69.7777778,105.881639 72.0125786,105.709408 C74.2473795,105.537178 68.918239,106.915023 68.918239,106.915023 C68.918239,106.915023 71.4968553,114.14871 82.4989518,119.48786 C83.8742138,119.31563 87.6561845,118.282246 87.6561845,118.282246 Z" id="Path-20" fill="#FFFFFF" sketch:type="MSShapeGroup"></path>
                <path d="M87.312369,64.5462822 C87.312369,64.5462822 88.8595388,61.4461305 90.9224319,63.3406677 C92.9853249,65.2352049 92.8134172,61.1016692 92.8134172,61.1016692 C92.8134172,61.1016692 94.0167715,60.9294385 94.0167715,59.723824 C94.0167715,58.5182094 93.5010482,57.6570561 93.8448637,57.4848255 C94.1886792,57.3125948 97.1111111,56.2792109 99.0020964,57.8292868 C100.893082,59.3793627 105.362683,58.8626707 107.081761,58.3459788 C108.800839,57.8292868 110.348008,57.1403642 111.035639,57.8292868 C111.72327,58.5182094 109.832285,64.5462822 109.832285,64.5462822 L108.972746,67.4742033 L108.285115,72.2966616 L106.566038,76.2579666 L101.924528,79.0136571 L102.612159,80.047041 C102.612159,80.047041 102.440252,90.2086495 101.580713,91.930956 C100.721174,93.6532625 100.549266,87.452959 100.549266,87.452959 C100.549266,87.452959 100.377358,85.7306525 97.9706499,84.1805766 C95.5639413,82.6305008 90.5786164,82.4582701 90.4067086,76.2579666 C91.7819706,72.124431 92.6415094,73.3300455 92.4696017,71.4355083 C92.2976939,69.5409712 91.9538784,70.9188164 89.7190776,69.8854325 C87.4842767,68.8520486 87.312369,64.5462822 87.312369,64.5462822 Z" id="Path-22" fill="#FFFFFF" sketch:type="MSShapeGroup"></path>
                <path d="M81.9832285,81.7693475 C81.9832285,81.7693475 84.9056604,84.3528073 85.2494759,86.4195751 C85.5932914,88.4863429 85.5932914,115.009863 86.1090147,116.043247 C86.6247379,117.076631 88,118.798938 89.0314465,117.765554 C90.0628931,116.73217 89.5471698,111.048558 90.2348008,108.80956 C90.9224319,106.570561 92.9853249,90.0364188 91.7819706,87.969651 C90.5786164,85.9028832 86.1090147,82.9749621 86.1090147,80.5637329 C86.1090147,78.1525038 81.9832285,81.7693475 81.9832285,81.7693475 Z" id="Path-24" fill="#EFEFEF" sketch:type="MSShapeGroup"></path>
                <path d="M114.81761,105.537178 L118.255765,116.387709 L120.318658,119.832322 L119.974843,122.760243 L118.083857,125.343703 L116.536688,126.204856 L115.161426,125.343703 C115.161426,125.343703 114.129979,126.204856 113.958071,125.515933 C113.786164,124.827011 112.238994,124.310319 112.238994,124.310319 C112.238994,124.310319 110.348008,123.621396 110.348008,122.588012 C110.348008,121.554628 112.926625,118.282246 112.582809,117.765554 C112.238994,117.248862 110.519916,114.665402 110.176101,113.632018 C109.832285,112.598634 109.48847,107.776176 109.48847,107.776176 L109.48847,106.398331 L114.81761,105.537178 Z" id="Path-21" fill="#FFFFFF" sketch:type="MSShapeGroup"></path>
                <path d="M106.39413,88.1418816 C106.39413,88.1418816 109.316562,96.7534143 109.316562,98.3034901 C109.316562,99.853566 110.176101,114.665402 110.519916,114.665402 C110.863732,114.665402 110.863732,116.904401 111.895178,117.421093 C112.926625,117.937785 113.958071,114.493171 113.442348,112.770865 C112.926625,111.048558 111.551363,98.8201821 111.72327,97.9590288 C111.895178,97.0978756 110.519916,87.2807284 109.48847,86.2473445 C108.457023,85.2139605 107.253669,84.5250379 107.253669,85.2139605 C107.253669,85.9028832 106.39413,88.1418816 106.39413,88.1418816 Z" id="Path-25" fill="#EFEFEF" sketch:type="MSShapeGroup"></path>
                <path d="M81.1236897,82.9749621 C78.8888889,83.1471927 77.1698113,84.6972686 75.4507338,86.0751138 C67.8867925,92.7921093 59.8071279,103.987102 59.8071279,103.987102 C59.8071279,103.987102 55.6813417,109.154021 60.6666667,112.426404 C66.6834382,119.143399 78.7169811,124.827011 78.7169811,124.827011 C78.7169811,124.827011 80.7798742,127.41047 85.5932914,126.893778 C87.312369,127.41047 87.6107391,128.561645 88.5157233,128.788316 C89.4207075,129.014987 89.8909853,128.960546 90.2348008,128.099393 C89.7190776,126.377086 92.2976939,128.443854 91.4381551,125.860395 C91.6100629,124.65478 92.9853249,125.860395 92.6415094,123.793627 C91.0943396,121.89909 94.360587,122.415781 92.4696017,120.521244 C90.9224319,119.31563 90.5786164,118.282246 86.2809224,118.110015 C83.3584906,118.626707 84.0461216,119.832322 81.2955975,118.971168 C78.5450734,118.110015 72.8721174,113.97648 68.5744235,107.259484 C73.5597484,106.053869 74.9350105,102.953718 76.8259958,102.609256 C78.7169811,102.264795 79.2327044,111.220789 81.2955975,113.287557 C81.8113208,116.043247 81.8113208,117.421093 81.8113208,117.421093" id="Path-1" stroke="#595757" stroke-linecap="round" stroke-linejoin="round" sketch:type="MSShapeGroup"></path>
                <path d="M90.5786164,74.1911988 C90.5786164,74.1911988 89.2033543,75.052352 89.7190776,76.9468892 C88.1719078,78.1525038 86.6247379,77.9802731 86.4528302,79.3581184 C86.2809224,80.7359636 88.1719078,85.7306525 90.2348008,86.7640364 C92.1257862,86.7640364 95.5639413,85.5584219 96.4234801,85.0417299 C97.2830189,84.5250379 98.6582809,85.7306525 99.6897275,86.4195751 C100.721174,87.1084977 101.06499,93.8254932 101.06499,96.408953 C101.06499,98.9924127 101.580713,88.4863429 103.815514,87.7974203 C106.050314,87.1084977 104.84696,87.1084977 106.737945,88.1418816 C108.628931,89.1752656 107.081761,86.0751138 106.737945,84.6972686 C106.39413,83.3194234 103.987421,81.7693475 103.643606,79.3581184 C102.612159,78.4969651 102.440252,80.9081942 102.612159,81.5971168" id="Path-2" stroke="#595858" stroke-linecap="round" stroke-linejoin="round" sketch:type="MSShapeGroup"></path>
                <path d="M107.597484,83.1471927 C107.597484,83.1471927 111.895178,84.5250379 112.582809,88.4863429 C113.27044,92.447648 113.442348,102.781487 114.129979,103.987102 C114.81761,105.192716 117.396226,113.115326 117.740042,115.354325 C118.083857,117.593323 120.662474,119.31563 120.490566,120.693475 C120.318658,122.07132 119.459119,124.482549 117.224319,126.032625 C116.369184,126.625753 115.832983,126.404048 115.677149,126.204856 C115.21739,125.617177 116.963214,123.710761 116.192872,124.482549 C115.486052,125.190697 114.157812,125.989742 113.786164,125.515933 C113.615474,125.298323 113.308818,124.995773 113.958071,123.965857 C113.098532,124.310319 110.691824,124.827011 111.379455,123.449165 C110.176101,123.621396 109.660377,122.243551 111.379455,120.521244 C112.754717,118.626707 112.582809,117.248862 113.614256,116.559939 C114.645702,115.871017 112.926625,117.248862 112.067086,117.421093" id="Path-3" stroke="#595858" stroke-linecap="round" stroke-linejoin="round" sketch:type="MSShapeGroup"></path>
                <path d="M112.754717,106.053869 C112.754717,106.053869 114.129979,106.053869 114.645702,105.192716" id="Path-4" stroke="#595858" stroke-linecap="round" stroke-linejoin="round" sketch:type="MSShapeGroup"></path>
                <path d="M75.1069182,137.74431 C74.591195,140.844461 74.2473795,145.494689 75.6226415,148.767071 C76.1383648,152.039454 74.591195,153.76176 74.591195,154.622914 C74.591195,155.484067 75.278826,159.617602 75.966457,160.306525 C76.6540881,160.995448 75.7945493,167.02352 76.1383648,170.468134 C75.966457,173.396055 73.0440252,175.462822 73.3878407,179.251897 C73.3878407,181.490895 71.8406709,179.251897 71.8406709,188.380121 C71.8406709,197.508346 71.6687631,196.991654 72.3563941,203.364188 C71.3249476,207.153263 69.9496855,209.22003 71.6687631,211.114568 C72.3563941,211.80349 71.3249476,212.836874 72.1844864,214.042489 C71.3249476,216.281487 72.0125786,215.248103 72.3563941,218.003794 C72.3563941,219.553869 71.3249476,221.448407 71.6687631,224.89302 C73.9035639,227.64871 76.1383648,226.615326 76.3102725,227.304249 C76.4821803,227.993171 80.0922432,230.921093 86.2809224,230.404401 C92.4696017,229.887709 91.7819706,228.165402 92.2976939,227.132018 C91.9538784,224.720789 89.7190776,225.237481 85.7651992,218.520486 C84.2180294,215.937026 85.5932914,215.937026 84.7337526,214.042489 C85.0775681,211.114568 84.9056604,209.736722 84.5618449,208.875569 C84.2180294,208.014416 85.2494759,198.713961 85.0775681,197.680577 C84.9056604,196.647193 88,189.069044 87.6561845,187.174507 C87.312369,185.27997 88.687631,187.174507 88.687631,182.007587 C88.3438155,178.390744 90.0628931,180.285281 90.9224319,171.673748 C91.0455105,169.330861 93.6431037,165.633696 95.9077568,160.478756 C96.8062143,158.433633 96.4234801,156.34522 97.9706499,154.106222" id="Path-5" stroke="#595858" stroke-linecap="round" stroke-linejoin="round" sketch:type="MSShapeGroup"></path>
                <path d="M94.360587,164.784522 C96.0724561,171.260445 94.360587,181.835357 95.5639413,179.596358 C96.2515723,180.11305 96.9392034,197.163885 97.9706499,198.713961 C99.1740042,201.814112 96.7672956,204.225341 99.6897275,206.808801 C100.205451,207.842185 98.8301887,208.358877 99.5178197,209.392261 C100.205451,210.425645 99.6897275,214.731411 100.721174,215.592564 C101.752621,216.453718 100.033543,217.831563 99.8616352,221.448407 C100.205451,223.342944 99.6897275,224.548558 105.018868,225.237481 C112.754717,225.06525 108.457023,224.720789 112.238994,224.548558 C114.989518,224.720789 116.708595,228.854325 126.507338,224.720789 C132.008386,220.242792 125.132075,219.7261 123.069182,218.520486 C120.662474,218.176024 117.568134,215.420334 115.333333,214.214719 C113.098532,213.009105 112.754717,211.631259 113.098532,210.253414 C111.895178,207.325493 113.098532,207.669954 112.410901,204.742033 C113.958071,203.536419 112.410901,197.852807 111.379455,195.097117 C110.348008,192.341426 110.691824,190.963581 111.207547,189.241275 C111.72327,187.518968 110.863732,186.313354 110.348008,183.902124 C110.519916,181.146434 111.035639,184.935508 110.691824,176.323976 C110.612807,174.344847 110.348008,172.534901 110.691824,170.984825 C111.551363,168.745827 111.379455,165.78256 111.379455,162.201062 C111.379455,157.550835 113.098532,145.66692 111.72327,142.566768 C111.551363,141.016692 112.582809,143.772382 103.127883,143.427921 C96.5953878,143.944613 85.0775681,139.638847 75.6226415,137.91654" id="Path-6" stroke="#595858" stroke-linecap="round" stroke-linejoin="round" sketch:type="MSShapeGroup"></path>
                <path d="M109.832285,117.076631 C109.832285,117.076631 108.628931,123.621396 109.48847,124.138088 C110.348008,124.65478 111.379455,129.305008 111.379455,131.027314 C111.379455,132.749621 111.72327,139.294385 113.098532,140.327769" id="Path-7" stroke="#595858" stroke-linecap="round" stroke-linejoin="round" sketch:type="MSShapeGroup"></path>
                <path d="M75.1069182,136.022003 C75.1069182,136.022003 74.7631027,132.060698 78.5450734,130.166161 C79.9203354,129.305008 80.0922432,128.616085 80.4360587,127.754932" id="Path-8" stroke="#595858" stroke-linecap="round" stroke-linejoin="round" sketch:type="MSShapeGroup"></path>
                <g id="Path-9">
                    <use stroke="#595858" stroke-width="1" stroke-linecap="round" stroke-linejoin="round" sketch:type="MSShapeGroup" xlink:href="#path-1"></use>
                    <use stroke="none" xlink:href="#path-1"></use>
                </g>
                <path d="M90.9224319,63.685129 C91.7819706,65.2352049 92.2976939,64.2018209 92.4696017,62.6517451 C92.6415094,61.1016692 93.3291405,60.9294385 93.8448637,60.4127466 C94.360587,59.8960546 92.8134172,57.3125948 95.048218,55.9347496 C98.3144654,56.6236722 97.6268344,57.1403642 101.924528,57.4848255 C105.706499,57.6570561 106.222222,57.3125948 108.113208,56.9681335" id="Path-10" stroke="#595858" stroke-linecap="round" stroke-linejoin="round" sketch:type="MSShapeGroup"></path>
                <path d="M103.157792,66.4185395 C103.157792,66.4185395 103.253379,71.2952147 102.637048,71.3823955 C102.020716,71.4695763 100.234842,71.1294392 99.8791088,70.1794907" id="Path-11" stroke="#595858" stroke-linecap="round" stroke-linejoin="round" sketch:type="MSShapeGroup"></path>
                <path d="M75.966457,216.281487 C78.7169811,216.281487 81.1236897,214.559181 82.327044,214.559181 C83.5303983,214.559181 84.7337526,214.731411 84.7337526,214.731411" id="Path-12" stroke="#595858" stroke-linecap="round" stroke-linejoin="round" sketch:type="MSShapeGroup"></path>
                <path d="M100.549266,213.870258 C100.549266,213.870258 102.955975,216.625948 105.878407,216.109256 C108.800839,215.592564 108.628931,213.698027 110.691824,213.525797" id="Path-13" stroke="#595858" stroke-linecap="round" stroke-linejoin="round" sketch:type="MSShapeGroup"></path>
                <path d="M73.7316562,140.155539 C73.7316562,140.155539 66.5115304,139.983308 64.6205451,136.022003 C62.7295597,132.060698 63.4171908,123.793627 62.557652,123.104704 C61.6981132,122.415781 60.3228512,120.349014 60.4947589,118.110015 C60.6666667,115.871017 61.5262055,114.837633 61.1823899,114.320941" id="Path-14" stroke="#595858" stroke-dasharray="4,2" sketch:type="MSShapeGroup"></path>
                <path d="M78.3731656,82.6305008 C67.1991614,82.9749621 64.1048218,92.447648 63.0733753,97.2701062" id="Path-15" stroke="#595858" stroke-dasharray="4,2" sketch:type="MSShapeGroup"></path>
                <path d="M85.4213836,80.5637329 C85.4213836,80.5637329 80.4360587,81.5971168 82.1551363,82.2860395 C83.8742138,82.9749621 85.3088577,85.1699671 85.4213836,89.0030349 C85.5932914,94.8588771 85.7651992,105.881639 85.7651992,105.881639 C85.7651992,105.881639 86.1090147,111.39302 86.1090147,112.254173 C86.1090147,113.115326 85.9371069,116.387709 85.9371069,116.73217 C85.9371069,117.076631 89.5471698,117.421093 89.7190776,116.904401 C89.8909853,116.387709 89.7190776,113.804249 89.7190776,112.943096 C89.7190776,112.081942 91.0943396,106.742792 91.4381551,105.709408 C91.7819706,104.676024 91.6100629,88.8308042 91.0943396,87.969651" id="Path-16" stroke="#595858" stroke-dasharray="4,2" sketch:type="MSShapeGroup"></path>
                <path d="M106.737945,89.5197269 C106.737945,89.5197269 109.832285,96.408953 110.004193,106.398331 C110.176101,116.387709 110.691824,114.665402 110.691824,115.526555 C110.691824,116.387709 111.035639,116.559939 112.582809,116.043247 C114.129979,115.526555 112.067086,107.603945 112.238994,104.503794 C112.410901,101.403642 111.379455,88.3141123 109.144654,85.7306525" id="Path-17" stroke="#595858" stroke-dasharray="4,2" sketch:type="MSShapeGroup"></path>
                <path d="M64.2767296,98.1312595 C64.2767296,98.1312595 68.4025157,104.503794 72.0125786,105.881639" id="Path-18" stroke="#595858" stroke-linecap="round" stroke-linejoin="round" sketch:type="MSShapeGroup"></path>
            </g>
        </g>
    </g>
</svg>