<?xml version="1.0" encoding="UTF-8" standalone="no"?>
<svg width="199px" height="246px" viewBox="0 0 199 246" version="1.1" xmlns="http://www.w3.org/2000/svg" xmlns:xlink="http://www.w3.org/1999/xlink" xmlns:sketch="http://www.bohemiancoding.com/sketch/ns">
    <!-- Generator: Sketch 3.5.2 (25235) - http://www.bohemiancoding.com/sketch -->
    <title>Professional</title>
    <desc>Created with Sketch.</desc>
    <defs></defs>
    <g id="Page-2" stroke="none" stroke-width="1" fill="none" fill-rule="evenodd" sketch:type="MSPage">
        <g id="Desktop-HD-Copy-2" sketch:type="MSArtboardGroup" transform="translate(-986.000000, -1040.000000)">
            <g id="Professional" sketch:type="MSLayerGroup" transform="translate(986.000000, 1041.000000)">
                <g id="noun_36628" transform="translate(0.000000, 25.000000)" fill="#5F589A" sketch:type="MSShapeGroup">
                    <path d="M5.83903939,182 L36.5916362,133.862062 L185.450238,133.862062 C186.683662,133.862062 187.679372,133.926455 187.679372,132.772188 C187.679372,131.617922 186.68142,130.682314 185.450238,130.682314 L39.3253527,130.682314 L55.0907565,106.583584 L81.3178399,119.352 C82.1386277,119.753575 83.098456,119.81665 83.9730658,119.526507 C84.8454331,119.238466 85.5518488,118.624539 85.9241186,117.827695 L102.391453,82.5941827 L106.33841,82.5941827 L122.263038,92.5242388 C123.005335,92.9867864 123.918069,93.1549856 124.783708,92.984684 C125.653833,92.8185873 126.420799,92.3350148 126.911926,91.6390909 L133.269667,81.5941827 L185.447995,81.5941827 C186.68142,81.5941827 187.677129,81.6585751 187.677129,80.5043085 C187.677129,79.350042 186.679177,78.4144343 185.447995,78.4144343 L136.211944,78.4144343 L143.083238,68.6420649 C143.401686,68.1879272 143.587821,67.662305 143.628187,67.1198628 L146.186982,30.3263031 L155.617071,30.3263031 L171.851176,40.7546492 C173.15412,41.5914398 174.910068,41.4610855 176.058273,40.4308658 L189.995967,27.8853132 C191.328065,26.684792 191.372917,24.7000422 190.092398,23.4511637 C188.809637,22.1959777 186.692632,22.1623378 185.362777,23.3607566 L182.268004,27.1465547 L160.943221,27.1465547 L145.523176,16.2417285 C144.531951,15.6046743 143.253675,15.5163697 142.168262,16.0083522 C141.087334,16.5024371 140.371948,17.499017 140.293457,18.6259511 L139.770934,27.1486572 L4.80293088,27.1486572 L4.80293088,3.13691377 C4.80293088,1.40446273 3.30488114,0 1.45698744,0 C-0.390906259,0 0.0447247868,1.40446273 0.0447247868,3.13691377 L0.0447247868,183.997233 C0.0447247868,185.729684 -0.38866367,187.134147 1.45923003,187.134147 L196.602635,187.134147 C198.450529,187.134147 198.5,185.732451 198.5,184 C198.497757,182.269651 197.933596,182 196.085702,182 L5.83903939,182 Z M4.80293088,133.862062 L29.7060496,133.862062 L4.80293088,172.453783 L4.80293088,133.862062 Z M55.4092042,99.6684969 C53.8528471,98.9137033 51.9354331,99.4119932 51.0159714,100.814353 L31.4762897,130.680211 L4.80293088,130.680211 L4.80293088,81.5899777 L95.0850965,81.5899777 L81.2303789,112.239279 L55.4092042,99.6684969 Z M123.173529,85.5523849 L118.421482,82.5899777 L125.256895,82.5899777 L123.173529,85.5523849 L123.173529,85.5523849 Z M177.623601,30.3178932 L173.389592,34.1297059 L167.4557,30.3178932 L177.623601,30.3178932 L177.623601,30.3178932 Z M146.588406,24.5192282 L149.106833,26.1360423 L146.476276,26.1360423 L146.588406,24.5192282 L146.588406,24.5192282 Z M139.48164,30.3178932 L137.008063,65.8751892 L128.19693,78.4081269 L111.71614,78.4081269 L103.671971,73.3915878 C102.846699,72.876478 101.821835,72.7335087 100.875462,72.9942174 C99.9290897,73.254926 99.1509112,73.8961852 98.7539728,74.7455908 L97.0428771,78.4081269 L4.80293088,78.4081269 L4.80293088,30.3178932 L139.48164,30.3178932 L139.48164,30.3178932 Z" id="Shape"></path>
                </g>
                <path d="M71.0962963,226.133891 C71.0962963,226.133891 72.0801787,226.347774 74.162963,225.793584 C75.2528451,225.503587 77.3154351,224.262204 78.2518519,224.262204 C80.9777778,224.262204 84.5555556,227.665272 85.7481481,224.09205 C86.9407407,220.518828 86.4296296,215.584379 86.0888889,215.073919 C85.7481481,214.563459 85.0666667,202.312413 85.0666667,202.312413 L84.8962963,186.658298 L85.237037,184.786611 L84.5555556,177.299861 L89.1555556,138.334728 L90.3481481,135.782427 L94.6074074,147.352859 L96.9925926,157.732218 L98.6962963,160.794979 L98.6962963,164.538354 C98.6962963,164.538354 97.3333333,168.79219 100.740741,170.153417 C99.7185185,172.195258 98.8666667,172.875872 98.8666667,175.76848 C98.8666667,178.661088 97.3333333,204.864714 97.3333333,204.864714 L93.5851852,213.712692 L93.0740741,219.497908 L91.8814815,230.387727 L92.7333333,232.259414 C92.7333333,232.259414 101.592593,236.853556 112.666667,229.026499 C112.666667,228.686192 110.622222,220.859135 110.622222,220.859135 L112.325926,218.817294 C112.325926,218.817294 113.688889,217.796374 113.518519,215.924686 C113.348148,214.052999 117.948148,190.74198 117.948148,190.74198 L119.651852,165.389121 L118.288889,149.90516 L113.518519,120.468619 L110.962963,105.835425 C110.962963,105.835425 101.251852,107.53696 98.5259259,107.366806 C95.8,107.196653 87.1111111,105.665272 87.1111111,105.665272 L69.3925926,112.301255 L67.5185185,125.232915 L67.8592593,150.075314 L68.7111111,158.242678 C68.7111111,158.242678 67.1777778,159.944212 66.6666667,161.475593 C66.1555556,163.006974 65.6444444,166.750349 66.6666667,177.129707 C67.6888889,187.509066 67.3481481,180.362622 67.3481481,182.404463 C67.3481481,184.446304 66.837037,207.927476 66.837037,207.927476 L66.3259259,211.670851 L67.6888889,216.264993 L69.2222222,218.987448 L68.8814815,223.751743 L71.0962963,226.133891 Z" id="Path-147" fill="#FFFFFF" sketch:type="MSShapeGroup"></path>
                <path d="M86.0888889,105.665272 C87.1111111,105.835425 94.0962963,112.301255 110.622222,106.175732 C110.622222,102.60251 108.577778,93.7545328 107.214815,89.8410042 C105.851852,85.9274756 102.444444,77.0794979 102.614815,70.4435146 C102.785185,63.8075314 100.22963,58.5327755 96.6518519,53.5983264 C96.3111111,48.4937238 95.6296296,43.5592748 95.6296296,43.5592748 L94.7777778,39.1352859 C94.7777778,39.1352859 94.7777778,40.1562064 93.2444444,42.5383543 C90.6888889,44.7503487 88.1333333,45.0906555 88.1333333,45.0906555 L85.7481481,45.2608089 L82.5111111,44.069735 L79.7851852,40.8368201 C79.7851852,40.8368201 77.2296296,39.1352859 77.0592593,39.6457462 C76.8888889,40.1562064 77.2296296,43.7294282 77.2296296,43.7294282 C77.2296296,43.7294282 85.0666667,105.495119 86.0888889,105.665272 Z" id="Path-155" fill="#FFFFFF" sketch:type="MSShapeGroup"></path>
                <path d="M95.4592593,32.8396095 C95.2888889,31.818689 92.3925926,39.3054393 95.6296296,46.9623431 C96.6518519,53.9386332 96.4814815,50.195258 96.4814815,50.195258 C96.4814815,50.195258 96.9925926,54.4490934 98.6962963,56.1506276 C100.4,57.8521618 102.444444,64.6582985 102.444444,64.6582985 C102.444444,64.6582985 102.955556,81.5034868 107.896296,91.5425384 C110.622222,102.432357 113.518519,121.149233 113.518519,121.149233 C113.518519,121.149233 115.222222,121.829847 115.733333,122 C116.244444,122.170153 117.096296,120.638773 117.096296,120.638773 L111.644444,89.6708508 L116.585185,95.1157601 L120.162963,96.8172943 C120.162963,96.8172943 125.614815,97.3277545 126.977778,87.7991632 C123.911111,82.5244073 119.311111,78.1004184 118.62963,73.6764296 C117.948148,69.2524407 117.096296,50.3654114 113.177778,45.4309623 C109.259259,40.4965132 109.940741,36.7531381 100.22963,35.7322176 C96.1407407,34.7112971 98.6962963,32.8396095 95.4592593,32.8396095 Z" id="Path-149" fill="#FFFFFF" sketch:type="MSShapeGroup"></path>
                <path d="M84.7259259,65.679219 L85.9185185,85.5871688 L86.4296296,91.7126918 L85.7481481,104.814505 L85.4074074,119.788006 L85.4074074,122.340307 L73.1407407,122.340307 L67.8592593,123.871688 L64.1111111,125.403068 L63.6,120.128312 L63.2592593,90.0111576 L62.7481481,88.8200837 L59,90.6917713 L53.3777778,91.2022315 C53.3777778,91.2022315 47.9259259,90.5216179 49.1185185,78.1004184 C50.3111111,65.679219 54.4,48.3235704 54.4,48.3235704 C54.4,48.3235704 52.5259259,46.7921897 68.7111111,36.7531381 C68.9341876,36.4857871 70.2171226,34.9705219 70.4148148,34.7112971 C71.7269586,32.9907424 71.4897432,32.7504925 72.9703704,32.1589958 C74.6740741,31.4783821 74.8444444,30.4574616 75.0148148,31.9888424 C75.1851852,33.5202232 73.1407407,36.7531381 80.1259259,44.7503487 C87.1111111,52.7475593 84.7259259,65.679219 84.7259259,65.679219 Z" id="Path-148" fill="#FFFFFF" sketch:type="MSShapeGroup"></path>
                <path d="M75.3555556,55.9804742 L75.5259259,47.9832636 L84.3851852,47.9832636 L84.5555556,55.4700139 L79.1037037,57.0013947 L75.3555556,55.9804742 Z" id="Path-151" fill="#DEDEDE" sketch:type="MSShapeGroup"></path>
                <path d="M75.5259259,73.3361227 L79.7851852,69.4225941 L80.8074074,65.8493724 L82.6814815,64.3179916 L85.237037,63.4672245 L85.5777778,61.9358438 L84.5555556,60.7447699 L83.8740741,58.8730823 L85.5777778,57.6820084 L85.237037,55.8103208 L81.3185185,55.9804742 L79.6148148,54.1087866 L75.0148148,56.320781 L73.3111111,60.0641562 L73.4814815,63.637378 L72.9703704,65.679219 L74.5037037,73.5062762 L75.5259259,73.3361227 Z" id="Path-150" fill="#FFFFFF" sketch:type="MSShapeGroup"></path>
                <path d="M97.6740741,78.9511855 C98.0148148,78.9511855 119.481481,75.5481172 119.481481,75.5481172 L122.377778,75.888424 L132.6,61.0850767 L153.214815,58.1924686 L140.266667,77.4198047 L140.096296,79.8019526 L120.503704,82.8647141 L96.4814815,80.6527197 L96.6518519,79.1213389 C96.6518519,79.1213389 97.3333333,78.9511855 97.6740741,78.9511855 Z" id="Path-154" fill="#E1E1E1" sketch:type="MSShapeGroup"></path>
                <path d="M118.97037,83.8856346 L119.651852,86.9483961 L121.355556,88.3096234 L124.592593,87.9693166 L127.82963,86.4379358 L130.555556,86.6080893 L132.6,84.5662483 L134.303704,81.5034868 L133.111111,78.7810321 L131.407407,78.7810321 L130.044444,78.2705718 L129.362963,78.2705718 L128.17037,77.930265 L127.148148,78.7810321 L127.148148,80.3124128 L125.955556,79.2914923 L125.444444,80.4825662 L124.592593,82.3542538 L123.911111,83.5453278 L123.57037,82.5244073 L119.651852,83.2050209 L118.97037,83.8856346 Z" id="Path-152" fill="#FFFFFF" sketch:type="MSShapeGroup"></path>
                <path d="M76.2074074,23.4811715 C75.921296,27.4244812 76.7185185,31.6485356 76.7185185,31.6485356 L77.0592593,32.8396095 C77.0592593,32.8396095 77.7407407,36.4128312 78.0814815,38.2845188 C78.4222222,40.1562064 78.9613304,39.8689806 79.6148148,40.6666667 C81.1481481,42.5383543 82.3407407,45.7712692 86.4296296,45.4309623 C90.5185185,45.0906555 92.9037037,42.7085077 92.9037037,42.7085077 C92.9037037,42.7085077 94.7777778,42.5383543 94.0962963,34.0306834 C94.0962963,32.1589958 94.9481481,30.2873082 94.9481481,30.2873082 L95.6296296,27.0543933 L96.4814815,27.735007 L97.5037037,26.7140865 L98.1851852,21.4393305 L96.9925926,21.0990237 L95.8,20.9288703 C95.8,20.9288703 93.5851852,21.4393305 92.7333333,19.567643 C91.8814815,17.6959554 92.3925926,15.9944212 91.0296296,16.334728 C89.6666667,16.6750349 87.7925926,18.376569 86.4296296,17.8661088 C85.0666667,17.3556485 85.237037,17.0153417 84.0444444,17.3556485 C82.8518519,17.6959554 80.9777778,20.2482566 80.9777778,20.2482566 L80.2962963,21.2691771 L77.5703704,19.9079498 C77.5703704,19.9079498 76.4935188,19.5378619 76.2074074,23.4811715 Z" id="Path-153" fill="#FFFFFF" sketch:type="MSShapeGroup"></path>
                <g id="pants" transform="translate(66.325926, 105.835425)" stroke="#494949" stroke-linecap="round" sketch:type="MSShapeGroup" stroke-linejoin="round">
                    <path d="M1.19259259,19.2273361 C1.19259259,19.2273361 0.681481481,42.3682008 2.04444444,49.3444909 C3.40740741,56.320781 -0.17037037,51.7266388 1.19259259,65.5090656 C2.55555556,79.2914923 1.19259259,69.762901 0.851851852,79.1213389 C0.511111111,88.4797768 0.681481481,102.432357 0.17037037,104.474198 C-0.340740741,106.516039 0.511111111,110.599721 2.38518519,112.471409 C4.25925926,114.343096 1.19259259,119.277545 4.6,120.128312 C8.00740741,120.979079 6.64444444,119.958159 6.81481481,122.170153 C6.98518519,124.382148 4.94074074,129.48675 7.32592593,131.528591 C9.71111111,133.570432 16.5259259,133.740586 20.1037037,133.570432 C23.6814815,133.400279 24.7037037,131.018131 23.6814815,128.806137 C22.6592593,126.594142 20.7851852,124.382148 19.9333333,120.638773 C19.0814815,116.895397 20.9555556,114.51325 20.6148148,112.301255 C20.2740741,110.089261 18.7407407,108.217573 18.7407407,106.175732 C18.7407407,104.133891 18.2296296,80.8228731 18.7407407,79.972106 C19.2518519,79.1213389 18.0592593,73.3361227 18.2296296,70.6136681 C18.4,67.8912134 20.9555556,37.7740586 23.5111111,31.3082287 C24.362963,28.7559275 22.8296296,29.6066946 26.4074074,37.4337517 C29.9851852,45.2608089 29.6444444,52.0669456 31.6888889,53.9386332 C33.7333333,55.8103208 31.6888889,58.5327755 32.2,59.0432357 C32.7111111,59.553696 31.8592593,63.2970711 33.7333333,63.9776848 C35.6074074,64.6582985 32.3703704,67.2105997 32.5407407,68.5718271 C32.7111111,69.9330544 31.1777778,99.7099024 30.3259259,101.241283 C29.4740741,102.772664 26.0666667,108.898187 26.5777778,110.769874 C27.0888889,112.641562 24.7037037,124.892608 25.7259259,126.083682 C26.7481481,127.274756 25.0444444,129.827057 25.7259259,133.740586 C26.4074074,137.654114 36.4592593,135.612273 43.9555556,136.973501 C51.4518519,138.334728 56.3925926,138.334728 61.8444444,137.313808 C66.9555556,136.46304 63.2074074,130.847978 59.9703704,130.677824 C56.9037037,129.997211 54.9829878,129.605978 52.9851852,128.46583 C50.6,127.104603 49.237037,126.934449 46.5111111,123.020921 C44.2962963,119.277545 45.3185185,117.405858 44.2962963,115.02371 C43.2740741,112.641562 47.7037037,114.343096 47.1925926,111.280335 C46.6814815,108.217573 51.4518519,91.8828452 52.3037037,75.2078103 C53.1555556,58.5327755 53.4962963,66.0195258 53.3259259,53.9386332 C53.2596363,49.2380664 51.2325171,41.5423541 49.9185185,33.6903766 C47.8554189,21.3620436 46.1133736,8.41176546 45.4888889,4.25383543 C44.2962963,-1.87168759 44.8074074,0.510460251 41.9111111,0.850767085 C37.9925926,1.0209205 35.0962963,1.36122734 31.1777778,1.0209205 C27.2592593,0.680613668 21.8074074,0 20.2740741,0" id="Path-112"></path>
                    <path d="M26.237037,126.423989 C26.237037,126.423989 34.0740741,128.125523 46.1703704,123.191074" id="Path-113"></path>
                    <path d="M6.98518519,120.298466 C6.98518519,120.298466 9.88148148,117.916318 14.8222222,118.937238 C17.3777778,119.277545 17.5481481,118.596932 17.5481481,118.596932" id="Path-114"></path>
                </g>
                <g id="shirt" transform="translate(48.607407, 30.627615)" stroke="#494949" stroke-linecap="round" sketch:type="MSShapeGroup" stroke-linejoin="round">
                    <path d="M24.5333333,34.5411437 C24.5333333,34.5411437 24.0222222,44.4100418 29.4740741,46.6220363 C33.562963,47.6429568 31.0074074,39.1352859 31.0074074,39.1352859" id="Path-115"></path>
                    <path d="M24.5333333,34.2008368 C24.5333333,34.2008368 13.8,41.3472803 12.2666667,41.8577406 C10.7333333,42.3682008 7.15555556,41.1771269 3.40740741,43.8995816" id="Path-116"></path>
                    <path d="M30.4962963,46.7921897 C30.4962963,46.7921897 25.3851852,49.8549512 23.1703704,51.7266388 C20.9555556,53.5983264 11.9259259,60.2343096 10.0518519,60.404463 C8.17777778,60.5746165 1.53333333,62.6164575 0.511111111,55.1297071 C-0.511111111,47.6429568 2.38518519,39.1352859 2.38518519,37.4337517 C2.38518519,35.7322176 3.91851852,28.2454672 3.91851852,26.8842399 C3.91851852,25.5230126 4.94074074,16.1645746 8.17777778,14.1227336 C11.4148148,12.0808926 14.9925926,10.5495119 18.9111111,7.14644351 C20.7851852,6.46582985 21.1259259,6.29567643 21.4666667,5.78521618 C21.8074074,5.27475593 20.7851852,3.91352859 23.8518519,1.87168759 C25.7259259,0.510460251 24.362963,0.170153417 25.8962963,0.340306834 C27.4296296,0.510460251 24.8740741,4.76429568 27.9407407,8.84797768 C31.0074074,12.9316597 31.5185185,14.4630404 31.5185185,14.4630404" id="Path-117"></path>
                    <path d="M21.637037,5.78521618 C21.637037,5.78521618 21.1259259,12.5913529 21.9777778,13.4421199 C22.8296296,14.292887 24.7037037,10.0390516 25.8962963,10.7196653 C27.0888889,11.4002789 28.962963,14.1227336 28.962963,14.1227336" id="Path-118"></path>
                    <path d="M46.8518519,2.38214784 C46.8518519,2.38214784 48.8962963,2.041841 50.0888889,4.93444909 C51.4518519,5.27475593 52.9851852,4.93444909 54.8592593,5.61506276 C56.7333333,6.29567643 60.9925926,7.48675035 63.037037,11.4002789 C65.0814815,15.3138075 68.4888889,28.9260809 69.3407407,33.86053 C70.1925926,38.7949791 69.6814815,43.3891213 70.7037037,43.7294282" id="Path-119"></path>
                    <path d="M50.0888889,4.76429568 C50.0888889,4.76429568 53.837037,10.3793584 53.1555556,11.2301255 C52.4740741,12.0808926 50.6,9.52859135 49.0666667,10.209205 C47.5333333,10.8898187 46.1703704,13.2719665 47.1925926,16.1645746 C48.2148148,19.0571827 46.6814815,20.7587169 49.4074074,24.8423989 C52.1333333,28.9260809 54.3481481,34.0306834 54.1777778,37.6039052 C54.0074074,41.1771269 54.5185185,45.9414226 54.5185185,45.9414226" id="Path-120"></path>
                    <path d="M36.1185185,35.2217573 C36.1185185,35.2217573 37.6518519,59.8940028 37.8222222,63.2970711 C37.9925926,66.7001395 35.7777778,90.0111576 36.8,91.5425384 C37.8222222,93.0739191 24.1925926,90.8619247 22.6592593,91.8828452 C21.1259259,92.9037657 16.6962963,94.6052999 15.5037037,94.7754533 C14.3111111,94.9456067 15.5037037,62.7866109 14.4814815,59.553696" id="Path-121"></path>
                    <path id="Path-122" d=""></path>
                    <path id="Path-123" d="M16.3620083,38.305544 C16.3620083,38.305544 16.9230891,34.6451815 16.3473534,31.6347699"></path>
                    <path d="M56.3925926,52.5774059 C56.3925926,52.5774059 62.0148148,69.9330544 62.3555556,73.3361227" id="Path-124"></path>
                    <path d="M66.1037037,91.2022315 C66.1037037,91.2022315 68.6592593,92.3933054 68.1481481,89.1603905 C67.637037,85.9274756 64.9111111,70.4435146 64.5703704,68.7419805 C63.3777778,61.7656904 63.5481481,60.5746165 62.5259259,58.5327755 C61.5037037,56.4909344 61.162963,55.4700139 61.162963,55.4700139 C61.162963,55.4700139 66.1037037,65.1687587 71.2148148,66.0195258 C76.3259259,66.8702929 78.5407407,59.2133891 78.0296296,57.3417015" id="Path-125"></path>
                    <path d="M69,53.2580195 C69,53.2580195 67.2962963,64.488145 72.237037,64.8284519" id="Path-126"></path>
                    <path id="Path-127" d=""></path>
                    <path d="M63.5481481,42.027894 C63.5481481,42.027894 63.5481481,33.0097629 61.6740741,26.2036262" id="Path-128"></path>
                    <path d="M26.7481481,24.1617852 L26.7481481,17.3556485 L35.7838605,17.3556485 L35.7838605,23.8301112" id="Path-146"></path>
                </g>
                <g id="face" transform="translate(71.096296, 0.000000)" stroke="#494949" stroke-linecap="round" sketch:type="MSShapeGroup" stroke-linejoin="round">
                    <path d="M5.11111111,22.6304045 C5.11111111,22.6304045 4.94074074,31.1380753 6.3037037,33.3500697 C7.66666667,35.5620642 10.3925926,40.8368201 14.9925926,41.0069735 C19.5925926,41.1771269 21.9777778,36.0725244 23,33.0097629 C24.0222222,29.9470014 24.5333333,26.5439331 24.5333333,26.5439331 C24.5333333,26.5439331 25.2148148,28.5857741 26.0666667,27.2245467 C26.9185185,25.8633194 27.2592593,21.609484 26.7481481,21.0990237 C26.237037,20.5885635 25.2148148,21.4393305 24.7037037,20.9288703" id="Path-131"></path>
                    <path d="M12.6074074,32.3291492 C12.6074074,32.3291492 14.9925926,33.6903766 16.0148148,33.0097629 C17.037037,32.3291492 15.6740741,27.3947001 16.0148148,25.1827057" id="Path-132"></path>
                    <path d="M8.17777778,40.3263598 C8.17777778,40.3263598 13.1185185,50.3654114 21.9777778,42.5383543" id="Path-133"></path>
                    <path d="M3.06666667,23.4811715 L0.340740741,14.292887 C0.340740741,14.292887 0.17037037,7.82705718 2.38518519,6.9762901 C4.6,6.12552301 6.81481481,2.38214784 6.81481481,2.38214784 C6.81481481,2.38214784 12.2666667,-1.36122734 15.6740741,0.680613668 C19.0814815,2.72245467 22.1481481,2.38214784 22.1481481,2.38214784 C22.1481481,2.38214784 27.7703704,3.74337517 27.7703704,10.5495119 C27.7703704,17.3556485 28.2814815,17.0153417 27.4296296,18.5467225" id="Path-134" fill="#FFFFFF"></path>
                    <path d="M4.42962963,20.2482566 C5.79259259,18.8870293 7.32592593,20.2482566 7.32592593,20.2482566 L9.02962963,21.4393305 C9.02962963,21.4393305 12.437037,16.334728 14.6518519,16.6750349 C16.8666667,17.0153417 19.4222222,15.6541144 20.4444444,13.6122734 C21.8074074,16.5048815 23.1703704,19.7377964 23.5111111,19.7377964" id="Path-135"></path>
                </g>
                <g id="hands" transform="translate(73.140741, 54.108787)" stroke="#494949" stroke-linecap="round" sketch:type="MSShapeGroup" stroke-linejoin="round">
                    <path d="M0.340740741,9.69874477 L0.17037037,5.61506276 C0.17037037,5.61506276 1.02222222,2.72245467 2.55555556,1.87168759 C4.08888889,1.0209205 6.47407407,0.170153417 6.47407407,0.170153417 C6.47407407,0.170153417 8.85925926,0.510460251 7.66666667,2.21199442 C5.28148148,3.23291492 3.74814815,3.40306834 3.08564358,4.55991564 C2.42313901,5.71676293 2.95251837,4.69410758 2.8962963,4.76429568 C2.72592593,5.10460251 2.64245614,5.07181822 3.06666667,4.76429568 C3.27589561,4.61261953 3.76015767,3.9736706 4.08888889,3.74337517 C4.74225128,3.28565664 5.6549344,3.02939813 5.96296296,2.89260809 C8.42608287,1.79878006 8.85925926,2.041841 10.9037037,1.70153417 C13.1111891,1.33408845 12.6074074,4.08368201 11.5851852,4.25383543 C10.7007366,4.40105581 6.75438416,5.72296837 5.45185185,6.80613668 C5.24895182,6.97486561 5.15703566,7.15606568 5.11111111,7.31659693 C4.77037037,8.50767085 6.13333333,6.29567643 6.13333333,6.29567643 C6.13333333,6.29567643 9.2,4.93444909 10.3925926,4.93444909 C11.5851852,4.93444909 12.437037,7.14644351 10.562963,7.48675035 C8.68888889,7.82705718 5.96296296,9.69874477 5.96296296,10.0390516" id="Path-129"></path>
                    <path d="M2.8962963,19.2273361 C2.8962963,19.2273361 7.4962963,15.3138075 7.4962963,12.4211994 C7.83703704,10.3793584 10.2222222,9.86889819 10.3925926,9.86889819 C10.562963,9.86889819 12.437037,9.69874477 12.437037,8.84797768 C12.437037,7.9972106 12.437037,7.31659693 10.9037037,7.48675035" id="Path-130"></path>
                    <path d="M45.8296296,29.9470014 C45.8296296,29.9470014 45.4888889,35.0516039 50.2592593,34.3709902 C52.6444444,33.1799163 53.1555556,33.0097629 54.5185185,32.6694561 C55.8814815,32.3291492 58.0962963,32.8396095 58.7777778,31.4783821 C59.4592593,30.1171548 60.9925926,28.4156206 60.9925926,27.5648536 C60.9925926,26.7140865 60.8222222,25.1827057 59.9703704,24.6722455 C59.1185185,24.1617852 58.0962963,24.5020921 58.6074074,25.8633194 C59.1185185,27.2245467 58.0962963,28.5857741 58.0962963,28.5857741" id="Path-136"></path>
                    <path d="M50.7703704,29.4365411 C50.7703704,29.4365411 51.962963,28.9260809 51.962963,26.8842399 C51.962963,24.8423989 53.6666667,24.6722455 54.0074074,26.3737796 C54.3481481,28.0753138 53.837037,28.4156206 53.837037,28.4156206" id="Path-137"></path>
                    <path d="M54.0074074,25.693166 C53.3259259,23.8214784 55.8814815,22.2900976 56.3925926,25.5741203 C56.5959054,26.8804585 56.4487363,27.5561792 56.3925926,28.0753138 C56.3075958,28.8612392 56.0518519,29.0962343 56.0518519,29.0962343" id="Path-138"></path>
                    <path d="M56.2222222,24.6722455 C56.2222222,24.6722455 57.7555556,22.9707113 58.2666667,25.5230126" id="Path-139"></path>
                </g>
                <g id="comp" transform="translate(96.311111, 58.192469)" stroke="#494949" stroke-linecap="round" sketch:type="MSShapeGroup" stroke-linejoin="round">
                    <path d="M36.1185185,3.23291492 L23.6814815,22.460251 L23.8518519,24.8423989 L0,22.460251 L0.340740741,20.7587169 L23,22.2900976" id="Path-140"></path>
                    <path id="Path-141" d="M24.1925926,24.6722455 L27.4296296,24.3319386"></path>
                    <path id="Path-142" d="M23.8518519,22.460251 L27.9407407,22.1199442"></path>
                    <path d="M40.037037,22.460251 L43.7851852,21.9497908 L43.7851852,19.567643 L39.1851852,20.2482566" id="Path-143"></path>
                    <path d="M43.9555556,19.3974895 L56.9037037,0 L36.2888889,2.89260809" id="Path-144"></path>
                    <path d="M0.851851852,20.5885635 C0.851851852,20.5885635 22.3185185,17.525802 22.6592593,17.525802 C23,17.525802 26.4074074,17.8661088 26.4074074,17.8661088" id="Path-145"></path>
                </g>
            </g>
        </g>
    </g>
</svg>