<?xml version="1.0" encoding="UTF-8" standalone="no"?>
<svg width="191px" height="239px" viewBox="0 0 191 239" version="1.1" xmlns="http://www.w3.org/2000/svg" xmlns:xlink="http://www.w3.org/1999/xlink" xmlns:sketch="http://www.bohemiancoding.com/sketch/ns">
    <!-- Generator: Sketch 3.5.2 (25235) - http://www.bohemiancoding.com/sketch -->
    <title>University</title>
    <desc>Created with Sketch.</desc>
    <defs>
        <path id="path-1" d="M10.3327556,26.3448276 C10.3327556,26.3448276 10.1741768,29.6056034 10.3466205,31.3369253 C10.5190641,33.0682471 13.7954939,31.8563218 13.9679376,30.9906609"></path>
    </defs>
    <g id="Page-2" stroke="none" stroke-width="1" fill="none" fill-rule="evenodd" sketch:type="MSPage">
        <g id="Desktop-HD-Copy-2" sketch:type="MSArtboardGroup" transform="translate(-570.000000, -1049.000000)">
            <g id="University" sketch:type="MSLayerGroup" transform="translate(489.000000, 979.000000)">
                <g id="noun_107944" transform="translate(177.674303, 179.967839) rotate(204.000000) translate(-177.674303, -179.967839) translate(45.174303, 42.967839)" fill="#FCAB2A" opacity="0.75052472" sketch:type="MSShapeGroup">
                    <path d="M216.062561,161.506942 C215.609343,161.506942 215.165469,161.544511 214.728604,161.596167 L207.4958,147.604364 C209.21289,145.655515 210.264169,143.096182 210.264169,140.285612 C210.264169,137.212064 209.018987,134.42967 207.00053,132.426816 C207.051926,132.356376 207.115003,132.288283 207.15939,132.203755 L214.294075,118.399793 C214.873447,118.493714 215.459827,118.554762 216.064897,118.554762 C222.14363,118.554762 227.061283,113.605153 227.061283,107.502671 C227.061283,101.400188 222.14363,96.450579 216.064897,96.450579 C209.9885,96.450579 205.070848,101.400188 205.070848,107.502671 C205.070848,110.923724 206.617397,113.978487 209.047021,116.007169 L202.054843,129.534065 C202.036154,129.555198 202.036154,129.57633 202.026809,129.597462 C201.14607,129.367357 200.227953,129.23352 199.277129,129.23352 C194.195943,129.23352 189.937092,132.696837 188.673221,137.397557 C188.663876,137.397557 188.654531,137.390513 188.654531,137.390513 L177.445554,137.390513 C176.172337,132.694489 171.91115,129.23352 166.83931,129.23352 C166.145465,129.23352 165.47031,129.306308 164.811508,129.430753 L153.168001,110.47995 C155.265888,108.465355 156.583492,105.631305 156.583492,102.484969 C156.583492,99.5452586 155.436429,96.8802652 153.567488,94.9008912 C153.62122,94.8445389 153.665607,94.7999267 153.71233,94.7365304 L158.658017,86.6875459 C159.777046,87.0773159 160.989522,87.300377 162.241713,87.300377 C168.320446,87.300377 173.238099,82.3531161 173.238099,76.2482854 C173.238099,70.1458027 168.320446,65.1985418 162.241713,65.1985418 C156.174661,65.1985418 151.247664,70.1434547 151.247664,76.2482854 C151.247664,78.9907632 152.25222,81.4937438 153.88988,83.4261575 L148.808695,91.6958551 C148.771316,91.7615994 148.757299,91.8273438 148.71992,91.8977841 C147.731717,91.5995866 146.682774,91.4352258 145.587107,91.4352258 C140.517602,91.4352258 136.254079,94.8961952 134.985535,99.5922188 L112.558235,99.5922188 C111.292027,94.8961952 107.028504,91.4352258 101.958999,91.4352258 C101.832846,91.4352258 101.709028,91.4516619 101.585211,91.4540099 L95.0672769,80.8503885 C96.9455633,78.8663186 98.1066433,76.1895851 98.1066433,73.2334382 C98.1066433,70.0471862 96.7539968,67.1826118 94.6047139,65.1633216 L101.851535,53.3786503 C103.087373,53.8623407 104.428339,54.1370581 105.832381,54.1370581 C111.908778,54.1370581 116.828767,49.1897972 116.828767,43.0873145 C116.828767,36.9824838 111.908778,32.0352229 105.832381,32.0352229 C99.7606567,32.0352229 94.8406678,36.9824838 94.8406678,43.0873145 C94.8406678,45.6701275 95.7260789,48.0369234 97.2025428,49.9200289 L89.5025031,62.451368 C88.7315647,62.2823111 87.9325921,62.1836946 87.1102578,62.1836946 C82.0407535,62.1836946 77.7772303,65.644664 76.5086861,70.3383396 L64.5568041,70.3383396 C63.2905961,65.644664 59.0270729,62.1836946 53.9575686,62.1836946 C47.881172,62.1836946 42.9611831,67.1309555 42.9611831,73.2334382 C42.9611831,79.3382689 47.881172,84.2855298 53.9575686,84.2855298 C59.0270729,84.2855298 63.2905961,80.8269084 64.5568041,76.1285368 L76.5086861,76.1285368 C77.7772303,80.8269084 82.0384173,84.2855298 87.1102578,84.2855298 C88.1638736,84.2855298 89.1777745,84.128213 90.1426156,83.8511476 L95.9223178,93.2502389 C92.9366834,95.2272649 90.9626138,98.6224899 90.9626138,102.484969 C90.9626138,105.643045 92.2872262,108.486488 94.4061388,110.501082 L82.680866,129.578678 C81.8211528,129.362661 80.9287332,129.235868 80.003607,129.235868 C74.9317666,129.235868 70.6705796,132.696837 69.4020354,137.392861 L59.8073561,137.392861 C58.5388119,132.696837 54.2776249,129.235868 49.2057844,129.235868 C43.1293878,129.235868 38.2093989,134.185477 38.2093989,140.28796 C38.2093989,146.390442 43.1293878,151.340051 49.2057844,151.340051 C54.2776249,151.340051 58.5388119,147.879082 59.8073561,143.178362 L69.4020354,143.178362 C70.6682434,147.879082 74.9317666,151.340051 80.003607,151.340051 C80.9777929,151.340051 81.9145999,151.19917 82.8140281,150.959673 L94.223917,169.520707 C92.2101324,171.525909 90.9626138,174.301259 90.9626138,177.372458 C90.9626138,180.042148 91.9064293,182.493472 93.471668,184.400058 L87.7877491,193.653572 C86.8789762,193.411727 85.9374969,193.268498 84.9539663,193.268498 C79.8821258,193.268498 75.6209388,196.731816 74.3523947,201.425491 L64.5544679,201.425491 C63.2905961,196.731816 59.0294091,193.268498 53.9528963,193.268498 C47.881172,193.268498 42.9565107,198.218107 42.9565107,204.32059 C42.9565107,210.420724 47.881172,215.372681 53.9528963,215.372681 C59.0270729,215.372681 63.2905961,211.911712 64.5544679,207.218036 L74.3523947,207.218036 C75.6209388,211.911712 79.8821258,215.372681 84.9539663,215.372681 C85.4165294,215.372681 85.8650754,215.335113 86.3066128,215.283457 L90.7336684,222.480113 C88.5143002,224.499403 87.1125939,227.417982 87.1125939,230.660586 C87.1125939,236.760721 92.0372553,241.712678 98.1089795,241.712678 C104.180704,241.712678 109.105365,236.760721 109.105365,230.660586 C109.105365,224.553408 104.180704,219.608495 98.1089795,219.608495 C97.3427134,219.608495 96.5998091,219.690675 95.8802666,219.833904 L91.6985096,213.03641 C94.2823214,211.017119 95.9503519,207.868436 95.9503519,204.318242 C95.9503519,201.286958 94.7355398,198.546829 92.7754872,196.548671 L98.1884095,187.741278 C99.3658428,188.170964 100.629715,188.419854 101.961336,188.419854 C106.827592,188.419854 110.946273,185.238298 112.392366,180.833428 L135.158412,180.833428 C136.604506,185.238298 140.725522,188.419854 145.591779,188.419854 C146.393088,188.419854 147.178043,188.330629 147.923284,188.166268 L152.576948,195.736259 C150.095928,197.764941 148.502656,200.854924 148.502656,204.318242 C148.502656,210.418376 153.429653,215.370333 159.496705,215.370333 C164.57789,215.370333 168.829732,211.909364 170.102949,207.215688 L181.225488,207.215688 C182.498705,211.909364 186.757555,215.370333 191.829396,215.370333 C197.905793,215.370333 202.825782,210.418376 202.825782,204.318242 C202.825782,198.215759 197.905793,193.26615 191.829396,193.26615 C186.757555,193.26615 182.498705,196.729468 181.225488,201.423143 L170.09594,201.423143 C168.822724,196.729468 164.570882,193.26615 159.489696,193.26615 C158.95004,193.26615 158.422064,193.320154 157.896424,193.397639 L153.030167,185.480143 C155.212156,183.460853 156.581156,180.579842 156.581156,177.37011 C156.581156,174.080546 155.142071,171.133791 152.871307,169.107457 L164.026552,150.957325 C164.925981,151.19917 165.86746,151.337703 166.836973,151.337703 C171.908814,151.337703 176.170001,147.876734 177.443217,143.176014 L188.652195,143.176014 C188.652195,143.176014 188.66154,143.171318 188.670885,143.171318 C189.934756,147.872038 194.193607,151.337703 199.274792,151.337703 C200.449889,151.337703 201.587608,151.145166 202.655241,150.79766 L209.37175,163.807994 C206.755231,165.822588 205.066175,168.992404 205.066175,172.561382 C205.066175,178.670909 209.983828,183.613474 216.060225,183.613474 C222.138958,183.613474 227.05661,178.670909 227.05661,172.561382 C227.058946,166.463595 222.138958,161.506942 216.062561,161.506942 L216.062561,161.506942 Z M145.58477,94.4782491 C149.9908,94.4782491 153.548798,98.0613151 153.548798,102.484969 C153.548798,106.903928 149.9908,110.489342 145.58477,110.489342 C141.181077,110.489342 137.623079,106.903928 137.623079,102.484969 C137.623079,98.0613151 141.181077,94.4782491 145.58477,94.4782491 L145.58477,94.4782491 Z M93.9879631,102.484969 C93.9879631,98.0636631 97.5506332,94.4782491 101.954327,94.4782491 C106.353348,94.4782491 109.916019,98.0613151 109.916019,102.484969 C109.916019,106.903928 106.353348,110.489342 101.954327,110.489342 C97.5506332,110.489342 93.9879631,106.90158 93.9879631,102.484969 L93.9879631,102.484969 Z M72.0372432,140.285612 C72.0372432,135.864305 75.5999132,132.281239 80.0012709,132.281239 C84.4002923,132.281239 87.9676348,135.864305 87.9676348,140.285612 C87.9676348,144.706918 84.4002923,148.292332 80.0012709,148.292332 C75.5999132,148.292332 72.0372432,144.706918 72.0372432,140.285612 L72.0372432,140.285612 Z M101.956663,185.372134 C97.5529694,185.372134 93.9902993,181.78672 93.9902993,177.37011 C93.9902993,172.948804 97.5529694,169.36339 101.956663,169.36339 C106.355685,169.36339 109.918355,172.948804 109.918355,177.37011 C109.918355,181.78672 106.353348,185.372134 101.956663,185.372134 L101.956663,185.372134 Z M153.548798,177.37011 C153.548798,181.78672 149.9908,185.372134 145.58477,185.372134 C141.181077,185.372134 137.623079,181.78672 137.623079,177.37011 C137.623079,172.948804 141.181077,169.36339 145.58477,169.36339 C149.9908,169.36339 153.548798,172.948804 153.548798,177.37011 L153.548798,177.37011 Z M145.58477,166.318019 C140.309683,166.318019 135.89898,170.060749 134.83602,175.045578 L112.700742,175.045578 C111.637781,170.060749 107.229415,166.318019 101.954327,166.318019 C101.010511,166.318019 100.106411,166.449507 99.2350169,166.67022 L87.8017662,148.066923 C89.7734996,146.068765 90.9906479,143.321591 90.9906479,140.285612 C90.9906479,137.200324 89.7267761,134.413234 87.7036467,132.408032 L99.4826516,113.24356 C100.274616,113.426704 101.101622,113.532365 101.951991,113.532365 C107.021495,113.532365 111.285018,110.073744 112.551226,105.37772 L134.978526,105.37772 C136.247071,110.073744 140.510594,113.532365 145.580098,113.532365 C146.444484,113.532365 147.280835,113.426704 148.079808,113.236515 L159.601833,131.978346 C157.298362,134.002332 155.840588,136.970219 155.840588,140.28796 C155.840588,143.323939 157.057736,146.073461 159.034142,148.069271 L147.692002,166.524644 C147.007502,166.390807 146.306649,166.318019 145.58477,166.318019 L145.58477,166.318019 Z M166.83931,148.292332 C162.435616,148.292332 158.877618,144.706918 158.877618,140.285612 C158.877618,137.803763 160.024681,135.613068 161.786159,134.143213 C161.823537,134.131473 161.85858,134.133821 161.884278,134.115037 L163.921424,132.851806 C164.830197,132.49256 165.809055,132.278891 166.83931,132.278891 C171.235995,132.278891 174.801001,135.861957 174.801001,140.283264 C174.801001,144.706918 171.233659,148.292332 166.83931,148.292332 L166.83931,148.292332 Z M191.303756,140.285612 C191.303756,135.864305 194.871099,132.281239 199.274792,132.281239 C203.669141,132.281239 207.236484,135.864305 207.236484,140.285612 C207.236484,144.706918 203.669141,148.292332 199.274792,148.292332 C194.873435,148.292332 191.303756,144.706918 191.303756,140.285612 L191.303756,140.285612 Z" id="Shape" transform="translate(132.635341, 136.873950) rotate(-27.000000) translate(-132.635341, -136.873950) "></path>
                </g>
                <path d="M185.466205,296.746408 L190.984402,296.573276 L194.950607,295.188218 L199.606586,294.49569 C199.606586,294.49569 201.67591,288.95546 200.813692,287.224138 C199.951473,285.492816 200.468804,277.875 200.468804,277.875 C200.468804,277.875 199.779029,273.89296 199.779029,273.027299 C199.779029,272.161638 200.468804,269.737787 200.468804,269.737787 L199.434142,265.755747 C199.434142,265.755747 199.261698,254.155891 199.261698,252.424569 C199.261698,250.693247 196.847487,234.591954 196.847487,234.591954 L196.330156,226.108477 L197.709705,221.087644 L196.847487,211.219109 C196.847487,211.219109 197.709705,206.025144 196.5026,204.466954 C195.295494,202.908764 193.22617,195.46408 193.22617,195.46408 C193.22617,195.46408 191.156846,189.05819 191.156846,186.980603 C191.156846,184.903017 187.880416,187.326868 185.121317,188.019397 C182.362218,188.711925 173.222704,191.308908 169.77383,190.616379 C166.324957,189.923851 157.357886,188.711925 157.357886,188.711925 L150.632582,186.288075 L154.426343,227.493534 L156.668111,232.514368 C156.668111,232.514368 157.185442,246.538075 158.909879,247.230603 C160.634315,247.923132 161.668977,256.060345 161.668977,256.060345 C161.668977,256.060345 162.186308,276.836207 163.393414,277.701868 C164.60052,278.567529 165.462738,284.627155 164.945407,285.492816 C164.428076,286.358477 166.152513,287.051006 169.428943,288.089799 C172.705373,289.128592 174.257366,291.206178 176.844021,290.167385 C179.430676,289.128592 181.155113,289.301724 181.155113,289.301724 L181.327556,276.663075 C181.327556,276.663075 180.120451,265.063218 178.913345,262.293103 C177.706239,259.522989 179.430676,253.463362 178.568458,250.866379 C177.706239,248.269397 175.981802,237.881466 176.154246,236.496408 C176.32669,235.111351 177.016464,232.6875 176.671577,230.090517 C176.32669,227.493534 177.533795,221.260776 176.671577,219.010057 C175.809359,216.759339 177.361352,226.454741 178.396014,227.320402 C179.430676,228.186063 179.948007,234.938218 179.948007,235.977011 C179.948007,237.015805 180.120451,246.364943 180.637782,247.057471 C181.155113,247.75 180.982669,255.540948 180.465338,256.926006 C179.948007,258.311063 181.672444,262.8125 181.844887,265.409483 C182.017331,268.006466 181.327556,279.086925 182.879549,281.337644 C184.431542,283.588362 183.051993,289.128592 184.086655,289.821121 C185.121317,290.513649 185.466205,296.746408 185.466205,296.746408 Z" id="Path-84" fill="#FFFFFF" sketch:type="MSShapeGroup"></path>
                <path d="M190.467071,185.249282 C190.467071,185.249282 184.603986,188.538793 182.707106,188.538793 C180.810225,188.538793 170.980936,195.983477 155.805893,188.711925 C151.667244,186.807471 147.356153,186.980603 149.080589,184.383621 C150.805026,181.786638 150.287695,178.497126 150.460139,177.458333 C150.632582,176.41954 152.357019,171.052443 152.357019,171.052443 L152.529463,164.992816 C152.529463,164.992816 155.288562,154.778017 154.943674,150.795977 C154.598787,146.813937 155.805893,143.351293 155.805893,143.351293 L155.116118,141.100575 L152.357019,141.793103 C152.357019,141.793103 143.907279,139.715517 143.045061,138.676724 C142.182842,137.637931 142.010399,137.637931 143.562392,134.175287 C145.114385,130.712644 145.804159,119.112787 146.666378,118.420259 C147.528596,117.72773 146.838821,111.321839 151.149913,108.897989 C155.461005,106.474138 163.910745,105.608477 164.772964,106.127874 C165.635182,106.64727 169.428943,109.763649 174.429809,110.62931 C179.430676,111.494971 186.67331,107.166667 187.363085,105.954741 C188.05286,104.742816 187.363085,103.357759 188.570191,103.357759 C189.777296,103.357759 194.605719,107.166667 196.330156,106.993534 C198.054593,106.820402 203.227903,110.109914 204.262565,112.014368 C205.297227,113.918822 208.918544,116.342672 208.918544,127.596264 C208.918544,138.849856 210.12565,139.196121 210.12565,139.196121 C210.12565,139.196121 212.02253,143.697557 211.160312,144.563218 C210.298094,145.428879 208.401213,145.602011 207.883882,145.428879 C207.366551,145.255747 201.67591,146.640805 200.813692,145.948276 C199.951473,145.255747 198.916811,145.602011 198.571924,145.428879 C198.227036,145.255747 194.260832,163.954023 194.950607,165.685345 C195.640381,167.416667 190.467071,185.249282 190.467071,185.249282 Z" id="Path-85" fill="#FFFFFF" sketch:type="MSShapeGroup"></path>
                <path d="M189.432409,176.073276 C191.152665,180.499033 189.604853,185.249282 190.984402,187.326868 C192.363951,189.404454 191.84662,193.04023 191.84662,193.04023 L195.467938,201.523707 L197.019931,208.622126 C197.019931,208.622126 200.468804,209.834052 202.020797,208.10273 C203.57279,206.371408 204.95234,203.428161 204.607452,201.523707 C204.262565,199.619253 201.503466,194.079023 201.848354,193.559626 C202.193241,193.04023 207.366551,193.386494 207.194107,192.867098 C207.021664,192.347701 203.917678,180.747845 202.538128,178.323994 C201.158579,175.900144 198.571924,166.724138 197.709705,166.377874 C196.847487,166.031609 194.778163,166.031609 193.915945,166.551006 C193.053726,167.070402 191.501733,167.416667 189.94974,163.434626 C188.397747,159.452586 164.255633,105.781609 164.255633,105.781609 L160.461872,106.127874 C160.461872,106.127874 159.599653,106.820402 160.634315,109.244253 C161.668977,111.668103 183.914211,166.724138 185.983536,170.013649 C188.05286,173.303161 187.712153,171.647519 189.432409,176.073276 Z" id="Path-83" fill="#F3F3F3" sketch:type="MSShapeGroup"></path>
                <path d="M166.842288,153.39296 C166.842288,153.39296 165.635182,153.566092 166.324957,154.778017 C167.014731,155.989943 166.324957,155.989943 166.324957,155.989943 L169.601386,157.548132 L170.808492,159.106322 L173.567591,160.664511 L174.774697,160.837644 L177.016464,162.049569 L180.292894,161.876437 C180.292894,161.876437 186.328423,158.760057 187.363085,158.760057 C188.397747,158.760057 198.744367,158.586925 198.744367,158.586925 L207.194107,156.509339 C207.194107,156.509339 209.435875,154.778017 209.953206,152.700431 C210.470537,150.622845 210.12565,145.428879 210.12565,145.428879 L200.641248,145.948276 C200.641248,145.948276 199.779029,147.679598 198.571924,148.545259 C197.364818,149.41092 190.811958,151.315374 189.94974,151.315374 L184.086655,151.315374 C184.086655,151.315374 179.085789,148.891523 176.671577,149.41092 C174.257366,149.930316 172.532929,150.103448 172.532929,150.103448 C172.532929,150.103448 171.325823,150.795977 172.188042,151.315374 C173.05026,151.83477 172.188042,152.527299 172.188042,152.527299 L166.842288,153.39296 Z" id="Path-86" fill="#FFFFFF" sketch:type="MSShapeGroup"></path>
                <path d="M146.666378,140.234914 L146.32149,145.602011 L145.286828,148.718391 C145.286828,148.718391 144.769497,154.604885 143.734835,154.604885 C142.700173,154.604885 141.493068,152.700431 140.803293,153.219828 C140.113518,153.739224 140.113518,154.951149 140.113518,154.951149 L143.045061,157.548132 L145.804159,159.971983 L147.011265,162.222701 L150.97747,164.646552 L154.253899,164.646552 L156.840555,163.780891 L159.772097,160.837644 C159.772097,160.837644 161.841421,158.93319 161.841421,158.586925 C161.841421,158.240661 161.841421,157.375 161.841421,157.375 L160.806759,156.855603 L159.944541,156.336207 L159.599653,155.470546 L158.220104,155.81681 L157.012998,155.124282 C157.012998,155.124282 155.288562,155.297414 154.943674,155.643678 C154.598787,155.989943 153.909012,156.682471 153.909012,156.682471 L153.736568,155.989943 C153.736568,155.989943 154.426343,152.873563 154.771231,148.198994 C155.116118,143.524425 155.805893,145.428879 155.805893,144.216954 C155.805893,143.005029 155.116118,141.446839 155.116118,141.446839 C155.116118,141.446839 152.701906,141.619971 152.357019,141.619971 C152.012132,141.619971 148.218371,140.408046 148.218371,140.408046 L146.666378,140.234914 Z" id="Path-87" fill="#FDFDFD" sketch:type="MSShapeGroup"></path>
                <path d="M160.116984,161.010776 C159.84111,160.739842 161.38669,159.354365 161.496534,158.413793 C161.62623,157.303227 160.328077,156.619726 159.944541,156.336207 C159.071157,155.690582 157.403189,155.602642 156.495667,155.124282 C156.003951,154.865095 154.89854,156.742026 154.426343,156.509339 C153.673139,156.138178 153.566573,155.920352 152.87435,155.643678 C152.340589,155.43034 150.392004,157.20521 149.942808,157.028736 C148.258034,156.366844 146.149047,155.470546 146.149047,155.470546 L131.663778,146.29454 L132.525997,145.082615 L155.633449,155.297414 C155.633449,155.297414 156.247025,154.923996 157.530329,155.297414 C158.626983,155.61652 160.323144,156.634535 161.32409,157.201868 C161.733592,157.433972 161.508822,158.566164 161.841421,158.760057 C163.308347,159.615222 166.324957,161.530172 166.324957,161.530172 L165.980069,163.261494 C165.980069,163.261494 162.656706,163.505019 160.116984,161.010776 Z" id="Path-88" fill="#D4CFCF" sketch:type="MSShapeGroup"></path>
                <path d="M176.154246,81.3699713 L176.671577,86.737069 L174.774697,90.545977 L173.395147,91.4116379 L169.77383,88.1221264 L168.049393,87.4295977 L171.670711,80.158046 L176.154246,81.3699713 Z" id="Path-90" fill="#FFFFFF" sketch:type="MSShapeGroup"></path>
                <path d="M184.948873,101.280172 C184.948873,101.280172 188.05286,104.396552 184.603986,106.993534 C181.155113,109.590517 178.913345,109.763649 177.188908,109.936782 C175.464471,110.109914 169.77383,109.244253 169.601386,108.378592 C169.428943,107.512931 170.636049,107.686063 168.049393,107.512931 C165.462738,107.339799 159.599653,100.241379 159.599653,98.8563218 C159.599653,97.4712644 158.737435,96.2593391 157.702773,96.0862069 C156.668111,95.9130747 155.116118,92.2772989 155.461005,91.2385057 C155.805893,90.1997126 158.04766,91.2385057 159.772097,90.1997126 C161.496534,89.1609195 163.565858,83.966954 165.290295,84.4863506 C167.014731,85.0057471 166.4974,87.2564655 167.532062,87.6027299 C168.566724,87.9489943 172.015598,88.9877874 173.222704,91.9310345 C174.429809,94.8742816 174.774697,90.8922414 174.774697,90.1997126 C174.774697,89.5071839 173.222704,85.5251437 175.119584,85.5251437 C177.016464,85.5251437 178.396014,87.6027299 178.396014,87.6027299 C178.396014,87.6027299 177.188908,90.8922414 177.706239,91.4116379 C178.22357,91.9310345 180.637782,97.6443966 180.637782,97.6443966 L184.948873,101.280172 Z" id="Path-89" fill="#F3F3F3" sketch:type="MSShapeGroup"></path>
                <g id="pants" transform="translate(150.632582, 185.768678)" stroke="#494949" sketch:type="MSShapeGroup">
                    <path d="M39.144714,0 C39.144714,0 26.9845193,5.06257307 14.830156,5.02083333 C9.27732027,5.00176414 6.59738841,3.46146487 0,0.692528736 C0.306402078,11.6220261 2.24176776,31.1637931 4.13864818,42.4173851 C7.75996534,49.3426724 4.6559792,54.7097701 10.0017331,66.1364943 C12.7608319,74.2737069 11.0363951,93.4913793 13.9679376,96.6077586 C14.4852686,98.6853448 13.2781629,101.109195 14.6577123,101.801724 C13.6230503,104.744971 13.1057192,104.398707 7.93240901,107.168822 C6.89774697,107.688218 6.0355286,110.631466 8.27729636,112.016523 C10.5190641,113.40158 15.347487,113.920977 17.9341421,113.574713 C20.3483536,112.189655 21.0381282,112.53592 22.762565,110.112069 C25.1767764,108.900144 27.5909879,108.900144 28.7980936,108.380747 C30.0051993,107.861351 31.5571924,107.168822 30.694974,103.359914 C29.8327556,99.5510057 31.212305,95.049569 30.5225303,92.7988506 C29.8327556,90.5481322 30.177643,84.6616379 29.1429809,80.5064655 C28.1083189,76.3512931 28.4532062,69.0797414 28.1083189,66.3096264 C27.7634315,63.5395115 26.0389948,54.5366379 25.6941075,52.6321839 C25.3492201,50.7277299 26.5563258,48.4770115 25.8665511,46.3994253 C25.1767764,44.3218391 26.5563258,37.7428161 25.8665511,36.0114943 C25.1767764,34.2801724 25.6941075,33.5876437 25.3492201,30.6443966 C25.0043328,27.7011494 22.762565,25.6235632 22.5901213,17.4863506" id="Path-44"></path>
                    <path d="M16.5545927,102.147989 C19.6585789,102.321121 20.3483536,102.840517 22.9350087,104.225575 C25.5216638,105.4375 28.9705373,103.186782 30.3500867,103.533046" id="Path-45"></path>
                    <path d="M25.0043328,29.4324713 C27.7634315,32.5488506 27.2461005,40.6860632 27.7634315,40.8591954 C28.2807626,41.0323276 29.8327556,51.9396552 29.4878683,53.3247126 C29.1429809,54.7097701 30.177643,65.7902299 30.3500867,67.1752874 C30.5225303,68.5603448 29.3154246,69.4260057 30.5225303,76.1781609 C31.729636,82.9303161 31.0398614,88.1242816 30.8674177,88.9899425 C30.694974,89.8556034 33.2816291,99.0316092 32.9367418,101.109195 C32.5918544,103.186782 33.9714038,103.87931 34.4887348,105.956897 C35.0060659,108.034483 33.6265165,112.016523 34.1438475,114.094109 C34.6611785,116.171695 36.3856153,116.691092 37.9376083,117.037356 C39.4896014,117.383621 41.7313692,117.729885 42.5935875,118.422414 C43.4558059,119.114943 43.1109185,120.326868 44.8353553,121.192529 C46.559792,122.05819 49.3188908,122.231322 50.1811092,121.885057 C51.0433276,121.538793 57.4237435,120.846264 58.1135182,120.326868 C58.8032929,119.807471 58.2859619,116.864224 57.4237435,116.171695 C56.5615251,115.479167 53.1126516,113.747845 52.5953206,113.055316 C52.0779896,112.362787 49.4913345,110.97773 49.4913345,109.41954 C49.4913345,107.861351 50.5259965,102.494253 49.8362218,100.070402 C49.1464471,97.6465517 49.4913345,91.2406609 49.6637782,90.375 C49.8362218,89.5093391 48.8015598,88.470546 48.9740035,86.9123563 C49.1464471,85.3541667 50.0086655,83.9691092 49.3188908,82.2377874 C48.6291161,80.5064655 48.2842288,69.5991379 48.6291161,66.4827586 C48.9740035,63.3663793 46.9046794,54.5366379 46.7322357,52.4590517 C46.559792,50.3814655 45.3526863,40.6860632 46.042461,39.4741379 C46.7322357,38.2622126 47.0771231,35.6652299 46.7322357,33.2413793 C46.3873484,30.8175287 45.3526863,26.316092 45.8700173,25.2772989 C46.3873484,24.2385057 46.2149047,21.641523 45.1802426,17.6594828 C44.1455806,13.6774425 41.0415945,8.6566092 41.2140381,6.75215517 C41.3864818,4.84770115 40.5242634,2.42385057 40.0069324,1.21192529" id="Path-46"></path>
                    <path d="M34.3162912,111.323994 C34.3162912,111.323994 40.3518198,111.497126 41.5589255,110.631466 C42.7660312,109.765805 46.9046794,108.727011 49.3188908,109.073276" id="Path-47"></path>
                </g>
                <g id="t-shirt" transform="translate(142.010399, 102.318966)" stroke="#494949" sketch:type="MSShapeGroup">
                    <path d="M6.72530329,82.4109195 C6.72530329,82.4109195 8.62218371,81.3721264 8.27729636,78.9482759 C7.93240901,76.5244253 9.48440208,70.4647989 9.82928943,70.2916667 C10.1741768,70.1185345 10.5190641,65.7902299 10.3466205,65.2708333 C10.1741768,64.7514368 10.3466205,62.6738506 10.3466205,62.6738506" id="Path-48"></path>
                    <path d="M12.5883882,50.7277299 C12.5883882,50.7277299 12.7608319,43.6293103 13.4506066,42.4173851 C14.1403813,41.2054598 12.7608319,39.4741379 13.1057192,37.9159483 C13.4506066,36.3577586 13.7954939,33.7607759 13.2781629,32.3757184 C12.7608319,30.9906609 11.0363951,29.7787356 11.8986135,26.8354885 C12.7608319,23.8922414 12.5883882,24.0653736 12.4159445,23.3728448" id="Path-49"></path>
                    <path d="M12.5883882,38.9547414 C12.5883882,38.9547414 9.48440208,39.9935345 8.96707106,39.1278736 C8.44974003,38.2622126 2.93154246,37.7428161 2.58665511,37.2234195 C2.24176776,36.704023 -2.19796403e-13,36.1846264 0.172443674,35.4920977 C0.344887348,34.799569 3.79376083,26.6623563 3.44887348,25.1041667 C3.10398614,23.545977 5.86308492,9.86853448 6.72530329,9.17600575 C7.58752166,8.48347701 8.10485269,5.71336207 13.7954939,4.50143678 C19.4861352,3.28951149 18.1065858,3.98204023 18.1065858,3.98204023" id="Path-50"></path>
                    <path d="M27.2461005,6.05962644 C27.2461005,6.05962644 32.9367418,11.253592 41.3864818,6.57902299 C49.8362218,1.90445402 44.1455806,0.173132184 44.1455806,0.173132184 C44.1455806,0.173132184 48.1117851,1.55818966 50.1811092,2.77011494 C52.2504333,3.98204023 56.0441941,4.50143678 57.0788562,5.19396552 C58.1135182,5.88649425 63.1143847,9.34913793 64.4939341,13.6774425 C65.8734835,18.0057471 66.3908146,37.0502874 67.0805893,37.5696839 C67.770364,38.0890805 68.9774697,42.7636494 68.4601386,42.9367816 C67.9428076,43.1099138 60.7001733,44.1487069 59.1481802,43.8024425 C57.5961872,43.4561782 56.7339688,43.4561782 56.3890815,43.1099138 C56.0441941,42.7636494 56.7339688,40.1666667 55.1819757,39.1278736 C53.6299827,38.0890805 53.6299827,35.3189655 53.97487,33.0682471 C54.3197574,30.8175287 53.457539,28.220546 53.457539,28.220546" id="Path-51"></path>
                    <path d="M53.97487,56.9604885 C53.97487,56.9604885 52.5953206,62.3275862 53.1126516,63.7126437" id="Path-52"></path>
                </g>
                <g id="bag" transform="translate(159.944541, 105.781609)" stroke="#595858" stroke-dasharray="4,2" sketch:type="MSShapeGroup">
                    <path d="M37.592721,103.706178 C37.592721,103.706178 42.7660312,102.494253 42.9384749,101.282328 C43.1109185,100.070402 44.6629116,98.5122126 44.1455806,96.4346264 C43.6282496,94.3570402 41.9038128,88.470546 42.7660312,87.7780172 C43.6282496,87.0854885 47.2495667,87.2586207 47.2495667,87.2586207 C47.2495667,87.2586207 43.9731369,75.8318966 42.4211438,72.8886494 C40.8691508,69.9454023 39.6620451,65.9633621 39.3171577,65.0977011 C38.9722704,64.2320402 38.110052,61.1156609 37.4202773,60.5962644 C36.7305026,60.0768678 33.6265165,61.1156609 32.5918544,61.2887931 C31.5571924,61.4619253 29.660312,56.7873563 29.660312,56.7873563 C29.660312,56.7873563 28.4532062,55.0560345 28.2807626,54.3635057 C27.0736568,54.5366379 26.5884587,54.0756067 24.8318891,54.8829023 C24.2167958,55.1655908 23.5228636,55.3379692 22.762565,55.9216954 C23.6247834,57.6530172 25.6941075,63.3663793 26.2114385,63.8857759 C26.7287695,64.4051724 27.9358752,68.0409483 28.9705373,68.733477 C30.0051993,69.4260057 29.1429809,73.2349138 29.660312,74.4468391 C30.177643,75.6587644 30.177643,78.9482759 30.694974,79.987069" id="Path-53"></path>
                    <path d="M33.2816291,62.6738506 C33.2816291,62.6738506 36.0407279,66.829023 34.3162912,67.3484195 C32.5918544,67.8678161 31.5571924,68.0409483 31.212305,67.8678161" id="Path-54"></path>
                    <path d="M42.2487002,88.6436782 C42.2487002,88.6436782 37.9376083,80.3333333 37.2478336,74.1005747" id="Path-55"></path>
                    <path d="M16.7270364,43.6293103 C16.7270364,43.6293103 2.41421144,12.1192529 0.172443674,0.86566092 C3.96620451,-0.519396552 3.10398614,0.173132184 4.31109185,0.346264368 C5.51819757,0.519396552 22.245234,43.4561782 24.3145581,45.1875" id="Path-63"></path>
                </g>
                <g id="hands" transform="translate(140.285962, 140.754310)" stroke="#494949" sketch:type="MSShapeGroup">
                    <path d="M33.4540728,11.253592 C33.4540728,11.253592 31.0398614,11.0804598 31.729636,9.6954023 C31.910021,9.33319199 34.3162912,9.34913793 37.4202773,8.82974138 C38.2520177,8.69056449 41.2140381,9.00287356 43.8006932,10.7341954 C46.7322357,10.7341954 50.1811092,11.0804598 53.6299827,9.6954023 C58.5842482,8.23659707 58.8193813,6.72792622 59.4930676,5.71336207 C59.8379549,5.19396552 63.9766031,5.71336207 69.6672444,4.67456897 C69.4948007,6.23275862 70.3176239,14.942539 66.3908146,15.9281609 C60.872617,17.3132184 60.1828423,17.6594828 57.4237435,18.0057471 C54.6646447,18.3520115 47.5944541,18.0057471 46.2149047,18.3520115 C44.8353553,18.6982759 40.3518198,21.4683908 39.3171577,21.4683908 C38.2824957,21.4683908 35.0060659,21.9877874 34.6611785,20.0833333 C32.7642981,19.9102011 30.8674177,19.5639368 29.3154246,16.6206897 C25.8665511,15.4087644 26.0389948,15.7550287 26.0389948,14.3699713 C26.5563258,14.5431034 25.0043328,12.8117816 26.9012132,12.4655172 C28.7980936,12.1192529 32.9367418,11.4267241 33.7989601,11.5998563 C34.6611785,11.7729885 37.7651646,11.253592 38.2824957,10.7341954" id="Path-56"></path>
                    <path d="M26.3838821,14.1968391 C26.3838821,14.1968391 27.7634315,15.0625 30.0051993,14.5431034 C32.2469671,14.5431034 34.6611785,14.7162356 35.0060659,14.7162356" id="Path-57"></path>
                    <path d="M29.4878683,16.6206897 C29.4878683,16.6206897 30.8674177,17.4863506 32.2469671,17.8326149 C33.6265165,18.1788793 36.2131716,17.8326149 36.2131716,17.8326149" id="Path-58"></path>
                    <path d="M2.06932409,16.1012931 C2.06932409,16.1012931 -1.37954939,14.0237069 0.862218371,12.2923851 C3.62131716,13.6774425 5.00086655,14.7162356 5.86308492,15.0625 C7.07019064,15.2356322 8.62218371,17.1400862 8.96707106,16.966954 C9.31195841,16.7938218 10.3466205,15.5818966 11.2088388,15.2356322 C11.7261698,14.7162356 13.7954939,14.1968391 13.6230503,15.7550287 C13.6230503,16.6206897 16.0372617,12.4655172 17.7616984,15.0625 C18.1065858,15.4087644 20.0034662,13.8505747 19.8310225,16.4475575 C20.6932409,16.1012931 22.245234,16.2744253 21.2105719,18.3520115 C19.3136915,20.2564655 17.4168111,22.3340517 15.5199307,23.7191092 C14.312825,24.0653736 12.5883882,24.5847701 9.13951473,23.1997126 C5.00086655,20.9489943 6.0355286,20.0833333 5.51819757,19.2176724 C5.00086655,18.3520115 2.06932409,16.1012931 2.06932409,16.1012931 Z" id="Path-59"></path>
                    <path d="M13.7954939,15.7550287 C13.7954939,15.7550287 11.8986135,18.5251437 10.0017331,19.9102011" id="Path-60"></path>
                    <path d="M17.9341421,15.2356322 C17.9341421,15.2356322 15.1750433,18.3520115 13.2781629,20.2564655" id="Path-61"></path>
                    <path d="M19.8310225,16.4475575 C19.8310225,16.4475575 18.2790295,18.6982759 17.2443674,19.5639368" id="Path-62"></path>
                    <path d="M6.38041594,0 C6.38041594,0 6.38041594,3.28951149 6.0355286,4.15517241 C5.69064125,5.02083333 5.69064125,7.61781609 4.6559792,8.48347701" id="Path-64"></path>
                </g>
                <g id="head" transform="translate(151.667244, 71.155172)">
                    <path d="M31.9020797,29.7787356 C31.9020797,29.7787356 26.9012132,24.7579023 26.2114385,21.8146552 C25.5216638,18.871408 27.5909879,19.5639368 26.9012132,16.966954 C26.2114385,14.3699713 25.0043328,13.5043103 23.1074523,14.5431034" id="Path-65" stroke="#494949" sketch:type="MSShapeGroup"></path>
                    <path d="M24.8318891,12.9849138 C24.8318891,12.9849138 24.1421144,6.05962644 22.762565,4.84770115 C21.3830156,3.63577586 20.5207972,0.86566092 16.5545927,0.519396552 C12.5883882,0.173132184 8.44974003,-0.692528736 6.72530329,1.73132184 C5.00086655,4.15517241 3.27642981,3.63577586 2.58665511,5.71336207 C1.89688042,7.79094828 -0.344887348,12.4655172 0.172443674,13.8505747 C0.689774697,15.2356322 -1.37954939,18.1788793 2.93154246,18.6982759 C7.24263432,19.2176724 8.27729636,17.4863506 9.13951473,16.1012931 C10.0017331,14.7162356 12.4159445,11.0804598 13.2781629,12.2923851 C14.1403813,13.5043103 15.5199307,16.966954 16.7270364,16.7938218 C17.9341421,16.6206897 21.2105719,18.871408 21.7279029,20.6027299 C23.1074523,19.3908046 23.279896,19.5639368 22.0727903,18.0057471" id="Path-66" stroke="#494949" fill="#FFFFFF" sketch:type="MSShapeGroup"></path>
                    <path d="M2.93154246,19.5639368 C2.93154246,19.5639368 3.79376083,22.3340517 4.48353553,23.545977 C5.17331023,24.7579023 5.17331023,25.7966954 6.89774697,25.7966954 C7.41507799,26.316092 7.41507799,26.4892241 7.75996534,28.220546 C7.92471149,28.5513538 8.48428228,29.2195398 9.21209175,30.0730295 C9.44484527,30.3459756 9.91442188,30.5116537 10.1741768,30.8175287 C10.4683332,31.1639134 10.210547,31.4813103 10.5190641,31.8563218 C10.7044651,32.081682 11.2034476,32.1441605 11.3812825,32.3757184 C11.5072271,32.5397102 11.8317296,33.045954 11.952198,33.2076058 C12.8013703,34.3470768 13.4971791,35.3722953 13.7954939,35.4920977 C14.6577123,35.8383621 16.0372617,37.7428161 19.4861352,36.3577586 C22.9350087,34.9727011 24.8318891,31.3369253 25.0043328,30.4712644" id="Path-67" stroke="#494949" sketch:type="MSShapeGroup"></path>
                    <g id="Path-68">
                        <use stroke="none" sketch:type="MSShapeGroup" xlink:href="#path-1"></use>
                        <use stroke="#494949" stroke-width="1" xlink:href="#path-1"></use>
                    </g>
                </g>
                <g id="tablet" transform="translate(131.318891, 144.909483)" stroke="#494949" sketch:type="MSShapeGroup">
                    <path d="M17.5892548,11.7729885 C17.0719237,11.5998563 16.2097054,11.253592 14.6577123,10.5610632 C13.7403652,10.1517256 3.79376083,3.63577586 3.79376083,3.63577586 L0.344887348,1.21192529 C0.344887348,1.21192529 0.172443674,1.0387931 1.03466205,0.173132184 C2.24176776,1.0387931 3.79376083,2.07758621 3.79376083,2.07758621 L15.5199307,9.34913793 L18.6239168,10.7341954" id="Path-69"></path>
                    <path d="M1.03466205,0.173132184 L22.5901213,9.6954023" id="Path-70"></path>
                    <path d="M29.1429809,16.4475575 L34.4887348,18.5251437 L35.3509532,17.1400862 L30.177643,15.0625" id="Path-71"></path>
                    <path d="M35.6958406,17.1400862 L31.0398614,14.3699713" id="Path-72"></path>
                    <path d="M15.5199307,9.17600575 L14.830156,10.5610632" id="Path-73"></path>
                </g>
            </g>
        </g>
    </g>
</svg>