<?xml version="1.0" encoding="UTF-8" standalone="no"?>
<svg width="117px" height="117px" viewBox="0 0 117 117" version="1.1" xmlns="http://www.w3.org/2000/svg" xmlns:xlink="http://www.w3.org/1999/xlink">
    <!-- Generator: Sketch 3.6.1 (26313) - http://www.bohemiancoding.com/sketch -->
    <title>info</title>
    <desc>Created with Sketch.</desc>
    <defs></defs>
    <g id="Page-1" stroke="none" stroke-width="1" fill="none" fill-rule="evenodd">
        <g id="info" fill="#FFFFFF">
            <g id="Page-1">
                <g id="noun_343446_cc">
                    <g id="Group">
                        <path d="M58.5,116.6 C90.5,116.6 116.5,90.6 116.5,58.6 C116.5,26.6 90.5,0.6 58.5,0.6 C26.5,0.6 0.4,26.6 0.4,58.6 C0.4,90.6 26.5,116.6 58.5,116.6 L58.5,116.6 L58.5,116.6 Z M58.5,11.1 C84.6222445,11.1 105.9,32.3777555 105.9,58.5 C105.9,84.6222445 84.6222445,105.9 58.5,105.9 C32.3777555,105.9 11.1,84.6222445 11.1,58.5 C11.1,32.3777555 32.3777555,11.1 58.5,11.1 L58.5,11.1 L58.5,11.1 Z" id="Shape"></path>
                        <path d="M48.8,84.1 C46.5,84.1 44.7,85.9 44.7,88.2 C44.7,90.5 46.5,92.3 48.8,92.3 L75.7,92.3 C78,92.3 79.8,90.5 79.8,88.2 C79.8,85.9 78,84.1 75.7,84.1 L66.3,84.1 L66.3,48 C66.3,45.7 64.5,43.9 62.2,43.9 L48.8,43.9 C46.5,43.9 44.7,45.7 44.7,48 C44.7,50.3 46.5,52.1 48.8,52.1 L58.2,52.1 L58.2,84.1 L48.8,84.1 L48.8,84.1 L48.8,84.1 Z" id="Shape"></path>
                        <circle id="Oval" cx="56.7" cy="30.5" r="6.6"></circle>
                    </g>
                </g>
            </g>
        </g>
    </g>
</svg>