<?xml version="1.0" encoding="UTF-8" standalone="no"?>
<svg width="352px" height="274px" viewBox="0 0 352 274" version="1.1" xmlns="http://www.w3.org/2000/svg" xmlns:xlink="http://www.w3.org/1999/xlink">
    <!-- Generator: Sketch 3.6.1 (26313) - http://www.bohemiancoding.com/sketch -->
    <title>Shape</title>
    <desc>Created with Sketch.</desc>
    <defs></defs>
    <g id="Page-1" stroke="none" stroke-width="1" fill="none" fill-rule="evenodd">
        <g id="noun_344330_cc" transform="translate(-80.000000, 0.000000)" fill="#ACACAC">
            <path d="M189.3,9.4 L89,114.4 C83,120.2 80,128.1 80,136.8 C80,145.5 83,153.3 89,159.2 L189.3,264.6 C201.2,277.1 220.6,277.1 232.5,264.6 C244.4,252.1 244.4,231.9 232.5,219.4 L184.4,169 L401.4,169 C418.3,169 432,154.7 432,137 C432,119.3 418.3,105 401.4,105 L184.4,105 L232.6,54.6 C244.5,42.1 244.5,21.9 232.6,9.4 C220.6,-3.1 201.3,-3.1 189.3,9.4 L189.3,9.4 Z" id="Shape"></path>
        </g>
    </g>
</svg>