<?xml version="1.0" encoding="UTF-8" standalone="no"?>
<svg width="18px" height="18px" viewBox="0 0 18 18" version="1.1" xmlns="http://www.w3.org/2000/svg" xmlns:xlink="http://www.w3.org/1999/xlink">
    <!-- Generator: Sketch 3.6.1 (26313) - http://www.bohemiancoding.com/sketch -->
    <title>linkedin</title>
    <desc>Created with Sketch.</desc>
    <defs></defs>
    <g id="Page-1" stroke="none" stroke-width="1" fill="none" fill-rule="evenodd">
        <g id="linkedin" fill="#007BB6">
            <g id="Page-1">
                <g id="linkedin">
                    <g id="Group">
                        <path d="M4,2 C4,3.062 3.29,3.976 1.999,3.976 C0.784,3.976 0,3.114 0,2.052 C0,0.962 0.76,0 2,0 C3.24,0 3.976,0.91 4,2 L4,2 L4,2 Z M0,18 L0,5 L4,5 L4,18 L0,18 L0,18 L0,18 Z" id="Shape"></path>
                        <path d="M6,9.444 C6,7.899 5.949,6.608 5.898,5.493 L9.492,5.493 L9.67,7.216 L9.746,7.216 C10.252,6.405 11.492,5.216 13.568,5.216 C16.1,5.216 18,6.911 18,10.558 L18,18 L14,18 L14,11.139 C14,9.545 13.393,8.329 12,8.329 C10.938,8.329 10.406,9.189 10.127,9.898 C10.025,10.152 10,10.506 10,10.861 L10,18 L6,18 L6,9.444 L6,9.444 L6,9.444 Z" id="Shape"></path>
                    </g>
                </g>
            </g>
        </g>
    </g>
</svg>