<?xml version="1.0" encoding="UTF-8" standalone="no"?>
<svg width="361px" height="361px" viewBox="0 0 361 361" version="1.1" xmlns="http://www.w3.org/2000/svg" xmlns:xlink="http://www.w3.org/1999/xlink">
    <!-- Generator: Sketch 3.6 (26304) - http://www.bohemiancoding.com/sketch -->
    <title>Group</title>
    <desc>Created with Sketch.</desc>
    <defs></defs>
    <g id="Page-1" stroke="none" stroke-width="1" fill="none" fill-rule="evenodd">
        <g id="noun_5805_cc" transform="translate(-126.000000, 0.000000)" fill="#FFFFFF">
            <g id="Group" transform="translate(126.000000, 0.000000)">
                <path d="M53.221,53.221 C-17.073,123.515 -17.072,237.485 53.221,307.779 C123.514,378.073 237.486,378.073 307.78,307.779 C378.073,237.486 378.073,123.514 307.78,53.221 C237.485,-17.073 123.514,-17.072 53.221,53.221 L53.221,53.221 Z M282.323,282.324 C226.088,338.553 134.912,338.555 78.677,282.324 C22.441,226.089 22.442,134.911 78.677,78.677 C134.913,22.441 226.088,22.442 282.324,78.676 C338.559,134.913 338.559,226.088 282.323,282.324 L282.323,282.324 Z" id="Shape"></path>
                <path d="M261.5,162.5 L198.5,162.5 L198.5,99.5 C198.5,89.559 190.441,81.5 180.5,81.5 C170.559,81.5 162.5,89.559 162.5,99.5 L162.5,162.5 L99.5,162.5 C89.559,162.5 81.5,170.559 81.5,180.5 C81.5,190.441 89.559,198.5 99.5,198.5 L162.5,198.5 L162.5,261.5 C162.5,271.441 170.559,279.5 180.5,279.5 C190.441,279.5 198.5,271.441 198.5,261.5 L198.5,198.5 L261.5,198.5 C271.441,198.5 279.5,190.441 279.5,180.5 C279.5,170.559 271.441,162.5 261.5,162.5 L261.5,162.5 Z" id="Shape"></path>
            </g>
        </g>
    </g>
</svg>