<?xml version="1.0" encoding="UTF-8" standalone="no"?>
<svg width="367px" height="367px" viewBox="0 0 367 367" version="1.1" xmlns="http://www.w3.org/2000/svg" xmlns:xlink="http://www.w3.org/1999/xlink">
    <!-- Generator: Sketch 3.6.1 (26313) - http://www.bohemiancoding.com/sketch -->
    <title>plus</title>
    <desc>Created with Sketch.</desc>
    <defs></defs>
    <g id="Page-1" stroke="none" stroke-width="1" fill="none" fill-rule="evenodd">
        <g id="plus" fill="#FFFFFF">
            <g id="Page-1">
                <g id="noun_5805_cc">
                    <g id="Group">
                        <path d="M53.8342386,53.834241 C-17.7779254,125.446405 -17.7769066,241.553588 53.8342386,313.165752 C125.445384,384.777916 241.554604,384.777916 313.166768,313.165752 C384.777914,241.554607 384.777914,125.445386 313.166768,53.834241 C241.553586,-17.777923 125.445384,-17.7769043 53.8342386,53.834241 L53.8342386,53.834241 L53.8342386,53.834241 Z M287.232395,287.233416 C229.942867,344.516831 137.057121,344.518868 79.7675935,287.233416 C22.4770473,229.943888 22.478066,137.056104 79.7675935,79.7675958 C137.05814,22.4770496 229.942867,22.4780684 287.233414,79.7665771 C344.522941,137.058142 344.522941,229.94287 287.232395,287.233416 L287.232395,287.233416 L287.232395,287.233416 Z" id="Shape"></path>
                        <path d="M259.795455,166.545455 L200.454545,166.545455 L200.454545,107.204545 C200.454545,97.8409268 192.863619,90.25 183.5,90.25 C174.136381,90.25 166.545455,97.8409268 166.545455,107.204545 L166.545455,166.545455 L107.204545,166.545455 C97.8409268,166.545455 90.25,174.136381 90.25,183.5 C90.25,192.863619 97.8409268,200.454545 107.204545,200.454545 L166.545455,200.454545 L166.545455,259.795455 C166.545455,269.159073 174.136381,276.75 183.5,276.75 C192.863619,276.75 200.454545,269.159073 200.454545,259.795455 L200.454545,200.454545 L259.795455,200.454545 C269.159073,200.454545 276.75,192.863619 276.75,183.5 C276.75,174.136381 269.159073,166.545455 259.795455,166.545455 L259.795455,166.545455 L259.795455,166.545455 Z" id="Shape"></path>
                    </g>
                </g>
            </g>
        </g>
    </g>
</svg>