<?xml version="1.0" encoding="UTF-8" standalone="no"?>
<svg width="187px" height="187px" viewBox="0 0 187 187" version="1.1" xmlns="http://www.w3.org/2000/svg" xmlns:xlink="http://www.w3.org/1999/xlink">
    <!-- Generator: Sketch 3.6.1 (26313) - http://www.bohemiancoding.com/sketch -->
    <title>Shape</title>
    <desc>Created with Sketch.</desc>
    <defs></defs>
    <g id="Page-1" stroke="none" stroke-width="1" fill="none" fill-rule="evenodd">
        <g id="plus" transform="translate(-90.000000, -90.000000)" fill="#FFFFFF">
            <g id="Page-1">
                <g id="noun_5805_cc">
                    <g id="Group">
                        <path d="M259.795455,166.545455 L200.454545,166.545455 L200.454545,107.204545 C200.454545,97.8409268 192.863619,90.25 183.5,90.25 C174.136381,90.25 166.545455,97.8409268 166.545455,107.204545 L166.545455,166.545455 L107.204545,166.545455 C97.8409268,166.545455 90.25,174.136381 90.25,183.5 C90.25,192.863619 97.8409268,200.454545 107.204545,200.454545 L166.545455,200.454545 L166.545455,259.795455 C166.545455,269.159073 174.136381,276.75 183.5,276.75 C192.863619,276.75 200.454545,269.159073 200.454545,259.795455 L200.454545,200.454545 L259.795455,200.454545 C269.159073,200.454545 276.75,192.863619 276.75,183.5 C276.75,174.136381 269.159073,166.545455 259.795455,166.545455 L259.795455,166.545455 L259.795455,166.545455 Z" id="Shape"></path>
                    </g>
                </g>
            </g>
        </g>
    </g>
</svg>